<svg width="83" height="99" viewBox="0 0 83 99" fill="none" xmlns="http://www.w3.org/2000/svg">
<path d="M45.5889 14.0361C49.4666 11.1716 54.9261 10.0734 59.1979 12.3082C54.3888 14.3962 50.4734 18.118 48.1442 22.815C47.2525 24.6296 46.4497 26.7409 44.6099 27.5796C43.4651 28.1014 42.1141 28.0007 40.9287 27.5793C39.7432 27.1578 38.6888 26.442 37.649 25.7337L37.3372 25.6961C39.1876 21.2443 41.7111 16.9007 45.5889 14.0361Z" fill="#F0F0F0"/>
<path d="M59.1633 12.4033C55.1748 12.5283 51.327 13.9068 48.1666 16.3431C47.4769 16.8555 46.8723 17.4734 46.375 18.174C45.9126 18.8722 45.6457 19.6815 45.6019 20.5177C45.5454 21.2967 45.5778 22.0999 45.3329 22.8515C45.2018 23.2344 44.9913 23.5853 44.7152 23.8811C44.439 24.1769 44.1034 24.411 43.7305 24.568C42.8113 24.9834 41.7977 25.0438 40.8044 25.0684C39.7016 25.0957 38.5556 25.1066 37.5527 25.6259C37.4311 25.6888 37.3406 25.4966 37.462 25.4338C39.207 24.5303 41.2461 25.1198 43.0802 24.5821C43.936 24.3312 44.7213 23.8208 45.065 22.967C45.3654 22.2203 45.3327 21.3919 45.3831 20.6028C45.4139 19.7864 45.6442 18.9899 46.0537 18.283C46.5137 17.5592 47.0935 16.9191 47.7683 16.3899C49.2684 15.1742 50.9503 14.202 52.7524 13.5089C54.8048 12.7063 56.9793 12.2608 59.1819 12.1916C59.3183 12.1874 59.2987 12.3991 59.1633 12.4033Z" fill="white"/>
<path d="M49.1381 15.4987C48.8013 14.9129 48.6837 14.2265 48.8063 13.5621C48.9289 12.8977 49.2837 12.2984 49.8073 11.8714C49.9135 11.7854 50.0522 11.9464 49.9458 12.0326C49.4575 12.4293 49.1271 12.9875 49.0142 13.6065C48.9013 14.2255 49.0134 14.8644 49.3302 15.408C49.399 15.5262 49.2064 15.6162 49.1381 15.4987Z" fill="white"/>
<path d="M45.5783 20.1191C46.9085 20.4909 48.33 20.3476 49.5593 19.718C49.681 19.6555 49.7716 19.8477 49.65 19.9101C48.3695 20.563 46.89 20.709 45.5066 20.3191C45.3747 20.2818 45.4472 20.082 45.5783 20.1191Z" fill="white"/>
<path d="M54.7947 12.9879C54.8778 13.2417 55.0226 13.4709 55.2161 13.6549C55.4097 13.8389 55.6459 13.9719 55.9036 14.042C56.0358 14.0776 55.9632 14.2774 55.8318 14.242C55.5475 14.1632 55.2868 14.016 55.0725 13.8132C54.8583 13.6104 54.6969 13.3582 54.6026 13.0786C54.5915 13.053 54.5905 13.0241 54.6 12.9979C54.6094 12.9716 54.6284 12.9499 54.6533 12.9372C54.6788 12.9253 54.7079 12.924 54.7344 12.9335C54.7609 12.943 54.7826 12.9625 54.7947 12.9879Z" fill="white"/>
<path d="M52.6317 24.7677C52.7155 24.0972 53.0349 23.4784 53.5328 23.0217C54.0307 22.565 54.6748 22.3001 55.3499 22.2744C55.4866 22.2697 55.5003 22.4818 55.3635 22.4865C54.7348 22.5093 54.1348 22.7561 53.6721 23.1823C53.2093 23.6085 52.9141 24.1862 52.8398 24.811C52.8235 24.9467 52.6155 24.9027 52.6317 24.7677Z" fill="white"/>
<path d="M47.008 26.3137C47.8462 27.4114 49.0674 28.1529 50.428 28.3902C50.5629 28.4136 50.5194 28.6216 50.3848 28.5982C48.9693 28.3486 47.7001 27.5744 46.8303 26.4302C46.7475 26.321 46.9256 26.2051 47.008 26.3137Z" fill="white"/>
<path d="M58.6602 26.1687C58.5738 26.4213 58.5514 26.6915 58.5952 26.9549C58.6389 27.2184 58.7474 27.4668 58.9109 27.6779C58.9951 27.786 58.8168 27.9018 58.7332 27.7944C58.5537 27.5603 58.4342 27.2858 58.3852 26.9949C58.3362 26.7039 58.3592 26.4054 58.4522 26.1254C58.4587 26.0983 58.4754 26.0747 58.4987 26.0594C58.5221 26.0441 58.5503 26.0382 58.5778 26.043C58.6054 26.0489 58.6294 26.0654 58.6449 26.0889C58.6603 26.1124 58.6658 26.1411 58.6602 26.1687Z" fill="white"/>
<path d="M44.5654 18.2977H44.1457V6.80245C44.1457 5.92875 43.9736 5.0636 43.6393 4.2564C43.3049 3.4492 42.8149 2.71576 42.1971 2.09796C41.5793 1.48015 40.8458 0.990088 40.0386 0.655736C39.2314 0.321383 38.3663 0.149292 37.4926 0.149292H13.1383C12.2646 0.14929 11.3994 0.321377 10.5922 0.655727C9.78503 0.990078 9.05159 1.48014 8.43378 2.09794C7.81598 2.71575 7.32591 3.44918 6.99156 4.25638C6.6572 5.06358 6.48511 5.92873 6.48511 6.80243V69.8664C6.48511 71.631 7.18606 73.3232 8.43377 74.5709C9.68148 75.8186 11.3737 76.5196 13.1383 76.5196H37.4926C39.2571 76.5196 40.9493 75.8186 42.1971 74.5709C43.4448 73.3232 44.1457 71.631 44.1457 69.8665V26.4803H44.5654V18.2977Z" fill="#3F3D56"/>
<path d="M37.7611 1.88025H34.5821C34.7283 2.23868 34.7841 2.62756 34.7446 3.01263C34.7051 3.3977 34.5715 3.76715 34.3556 4.08843C34.1397 4.40971 33.8481 4.67297 33.5064 4.855C33.1648 5.03703 32.7837 5.13225 32.3966 5.13228H18.4443C18.0572 5.13225 17.6761 5.03703 17.3344 4.855C16.9928 4.67297 16.7012 4.40972 16.4853 4.08844C16.2694 3.76715 16.1358 3.3977 16.0963 3.01263C16.0568 2.62755 16.1126 2.23867 16.2588 1.88025H13.2896C11.9718 1.88025 10.7081 2.40371 9.77629 3.33549C8.84451 4.26726 8.32105 5.53102 8.32104 6.84874V69.8202C8.32104 70.4727 8.44956 71.1188 8.69925 71.7216C8.94894 72.3244 9.31492 72.8721 9.77628 73.3335C10.2377 73.7948 10.7854 74.1608 11.3882 74.4105C11.991 74.6602 12.6371 74.7887 13.2895 74.7887H37.7611C38.4136 74.7887 39.0597 74.6602 39.6625 74.4105C40.2653 74.1608 40.813 73.7948 41.2744 73.3335C41.7358 72.8721 42.1018 72.3244 42.3514 71.7216C42.6011 71.1188 42.7296 70.4727 42.7296 69.8202V6.84874C42.7296 5.53101 42.2062 4.26726 41.2744 3.33549C40.3426 2.40372 39.0789 1.88025 37.7611 1.88025Z" fill="white"/>
<path d="M29.2233 61.0234H21.6914C21.4298 61.0234 21.1789 60.9195 20.994 60.7345C20.809 60.5496 20.7051 60.2987 20.7051 60.0371C20.7051 59.7755 20.809 59.5246 20.994 59.3397C21.1789 59.1547 21.4298 59.0508 21.6914 59.0508H29.2233C29.4849 59.0508 29.7358 59.1547 29.9207 59.3397C30.1057 59.5246 30.2096 59.7755 30.2096 60.0371C30.2096 60.2987 30.1057 60.5496 29.9207 60.7345C29.7358 60.9195 29.4849 61.0234 29.2233 61.0234Z" fill="#6C63FF"/>
<path d="M72.0297 96.3116L70.1729 96.3114L69.2896 89.1493L72.0301 89.1495L72.0297 96.3116Z" fill="#9F616A"/>
<path d="M72.7602 98.8813L65.6711 98.881V98.7914C65.6712 98.0596 65.9619 97.3578 66.4794 96.8403C66.9968 96.3229 67.6986 96.0322 68.4304 96.0321H68.4306L69.7255 95.0497L72.1416 96.0323L72.7604 96.0323L72.7602 98.8813Z" fill="#2F2E41"/>
<path d="M70.9479 62.651L70.1289 52.666L69.4856 48.9183L73.0876 48.1227L74.2829 53.2537L73.2415 62.9281C73.4516 63.1855 73.5798 63.4999 73.6099 63.8307C73.6399 64.1616 73.5704 64.4939 73.4101 64.785C73.2499 65.076 73.0063 65.3125 72.7106 65.464C72.415 65.6156 72.0807 65.6753 71.7509 65.6354C71.4211 65.5956 71.1107 65.458 70.8596 65.2404C70.6085 65.0228 70.4282 64.7351 70.3419 64.4143C70.2556 64.0935 70.2672 63.7542 70.3751 63.44C70.4831 63.1258 70.6826 62.851 70.9479 62.651Z" fill="#9F616A"/>
<path d="M62.1665 96.3116L60.3097 96.3114L59.4263 89.1493L62.1668 89.1495L62.1665 96.3116Z" fill="#9F616A"/>
<path d="M59.195 64.9146L58.3719 66.3385C58.3719 66.3385 57.4674 66.5855 57.763 69.5339C58.0586 72.4823 58.0713 89.9507 59.5022 92.1003L59.761 93.9461L62.463 94.2043L62.5311 92.5665L65.7529 69.8122C65.7529 69.8122 67.6504 92.1497 69.22 92.6963L69.7869 94.5573L72.2631 94.5583L72.1169 92.3652L72.2766 64.6838L59.195 64.9146Z" fill="#2F2E41"/>
<path d="M58.2898 66.23L58.2329 66.2153C59.9319 59.8605 59.4418 51.6315 58.2422 42.7952L58.2422 42.7586L62.5791 38.7863H66.345L70.0784 41.1956C72.4919 42.4023 73.0404 44.9578 73.0457 44.9836L73.0494 45.0018L71.5706 50.1636L72.6846 65.0918L72.6859 65.1091L72.6795 65.1252C72.319 66.0393 71.3528 65.9092 70.2341 65.7584C69.1173 65.6078 65.0019 66.9847 63.74 66.9847C61.274 66.9847 58.466 66.2752 58.2898 66.23Z" fill="#E4E4E4"/>
<path d="M69.2968 43.2076L70.9147 42.5038L73.0462 45.1172L74.7739 53.4915L68.856 52.5949L69.2968 43.2076Z" fill="#E4E4E4"/>
<path d="M44.4126 58.65L51.8084 51.8918L54.3788 49.0895L57.2122 51.4514L53.8857 55.5367L45.5971 60.6335C45.5221 60.9572 45.352 61.251 45.1087 61.4773C44.8654 61.7035 44.56 61.8519 44.2317 61.9032C43.9035 61.9546 43.5674 61.9067 43.2666 61.7656C42.9658 61.6245 42.7141 61.3967 42.5437 61.1114C42.3734 60.8262 42.2922 60.4965 42.3107 60.1648C42.3291 59.8331 42.4463 59.5144 42.6472 59.2498C42.8481 58.9852 43.1236 58.7867 43.4382 58.6798C43.7527 58.5729 44.0921 58.5626 44.4126 58.65Z" fill="#9F616A"/>
<path d="M51.6472 51.9653L53.6956 49.3052C53.7126 49.2671 55.4121 45.4693 56.8851 43.8192C58.3962 42.1265 59.5859 42.9922 59.5978 43.0015L59.6274 43.0238L59.7096 49.2747L54.0377 56.0519L51.6472 51.9653Z" fill="#E4E4E4"/>
<path d="M67.4965 35.0447C67.8019 33.1627 66.5238 31.3895 64.6418 31.0841C62.7598 30.7787 60.9866 32.0567 60.6812 33.9388C60.3758 35.8208 61.6538 37.594 63.5359 37.8994C65.4179 38.2048 67.1911 36.9267 67.4965 35.0447Z" fill="#9F616A"/>
<path d="M60.9324 33.9793C60.9324 33.9793 60.9047 32.7656 60.7513 32.2286C60.5978 31.6916 60.291 31.2313 60.4444 31.2313C60.5978 31.2313 60.6746 30.8477 60.6746 30.8477C60.6746 30.8477 60.828 30.771 60.9047 30.8477C60.9814 30.9244 61.0581 30.3107 61.0581 30.3107C61.0581 30.3107 61.1349 30.0805 61.2116 30.234C61.2883 30.3874 61.2883 30.3107 61.365 30.0805C61.4417 29.8504 61.8253 29.6969 61.8253 29.6969C61.8253 29.6969 63.283 29.7737 63.5131 29.4668C63.7433 29.1599 66.3516 29.3901 66.8886 29.7736C67.4257 30.1572 69.8039 31.5381 69.4203 32.6889C69.0367 33.8396 67.9325 36.4892 67.6558 36.7549C67.2182 37.175 66.9153 37.3264 64.8449 37.7384C64.4397 37.819 62.3716 36.4964 62.3716 36.2662C62.3716 36.0361 62.6209 35.3062 62.2201 35.206C61.6143 35.0545 61.5461 35.8205 61.3927 35.5903C61.2392 35.3602 60.9324 33.9793 60.9324 33.9793Z" fill="#2F2E41"/>
<path d="M62.8972 98.8813L55.8081 98.881V98.7914C55.8082 98.0596 56.0989 97.3578 56.6163 96.8403C57.1338 96.3229 57.8356 96.0322 58.5674 96.0321H58.5676L59.8625 95.0497L62.2785 96.0323L62.8974 96.0323L62.8972 98.8813Z" fill="#2F2E41"/>
<path d="M81.9131 98.9518H1.03768C0.998228 98.9518 0.96039 98.9361 0.932491 98.9082C0.904591 98.8803 0.888916 98.8425 0.888916 98.803C0.888916 98.7635 0.904591 98.7257 0.932491 98.6978C0.96039 98.6699 0.998228 98.6542 1.03768 98.6542H81.9131C81.9525 98.6542 81.9904 98.6699 82.0183 98.6978C82.0462 98.7257 82.0619 98.7635 82.0619 98.803C82.0619 98.8425 82.0462 98.8803 82.0183 98.9082C81.9904 98.9361 81.9525 98.9518 81.9131 98.9518Z" fill="#CACACA"/>
<path d="M23.8725 17.5384C24.2843 17.5384 24.6181 17.2046 24.6181 16.7928C24.6181 16.381 24.2843 16.0472 23.8725 16.0472C23.4608 16.0472 23.127 16.381 23.127 16.7928C23.127 17.2046 23.4608 17.5384 23.8725 17.5384Z" fill="white"/>
<path d="M25.3328 54.2862C25.3085 54.3439 25.2812 54.4002 25.251 54.4551C25.0924 54.7477 24.8683 54.9998 24.5963 55.1916C24.2741 55.4183 23.8959 55.5522 23.5028 55.5787C23.1097 55.6052 22.717 55.5232 22.3673 55.3417C22.0177 55.1602 21.7246 54.8862 21.52 54.5495C21.3154 54.2128 21.2073 53.8264 21.2073 53.4325V53.0853H21.5019C22.6465 53.8252 23.9706 54.2403 25.3328 54.2862Z" fill="#3F3D56"/>
<path d="M29.5372 53.187V53.4325C29.5373 53.9104 29.3783 54.3749 29.085 54.7523C28.7918 55.1298 28.3812 55.3988 27.918 55.5169C27.4548 55.635 26.9655 55.5954 26.5274 55.4043C26.0893 55.2133 25.7273 54.8817 25.4986 54.4619C25.4671 54.4058 25.4386 54.348 25.4133 54.2888C25.4762 54.2905 25.5382 54.2914 25.6011 54.2914C26.9899 54.293 28.352 53.9108 29.5372 53.187Z" fill="#3F3D56"/>
<path d="M32.4351 27.2242C32.3704 27.2147 32.305 27.2086 32.2395 27.2043C32.9835 28.9189 33.0351 30.8549 32.3834 32.6066C32.4489 32.5988 32.5135 32.5885 32.5781 32.5764C33.209 32.4542 33.776 32.1121 34.1783 31.6109C34.5805 31.1097 34.7919 30.4821 34.7747 29.8397C34.7576 29.1973 34.513 28.5818 34.0845 28.1029C33.6561 27.6239 33.0716 27.3125 32.4351 27.2242Z" fill="#3F3D56"/>
<path d="M18.9627 27.2043C18.8972 27.2087 18.8317 27.2147 18.7671 27.2242C18.1306 27.3125 17.5461 27.6239 17.1177 28.1029C16.6892 28.5818 16.4446 29.1973 16.4275 29.8397C16.4103 30.4821 16.6217 31.1097 17.0239 31.6109C17.4262 32.112 17.9932 32.4542 18.6241 32.5764C18.6887 32.5885 18.7533 32.5988 18.8188 32.6066C18.1671 30.8548 18.2187 28.9189 18.9627 27.2043Z" fill="#3F3D56"/>
<path d="M32.4349 27.2242C31.7253 25.529 30.4108 24.1581 28.7469 23.3778C27.0829 22.5976 25.1884 22.4637 23.4313 23.0022C21.6742 23.5407 20.18 24.7131 19.2389 26.2917C18.2979 27.8702 17.9772 29.7422 18.3392 31.544C18.7012 33.3457 19.7201 34.9486 21.1978 36.0412C22.6755 37.1338 24.5066 37.6381 26.3353 37.4561C28.1641 37.2742 29.8599 36.4189 31.0933 35.0566C32.3267 33.6942 33.0097 31.922 33.0096 30.0842C33.0092 29.1022 32.8139 28.1301 32.4349 27.2242ZM32.3833 32.6066C31.7531 34.3005 30.5118 35.6972 28.9035 36.5218C27.2952 37.3463 25.4366 37.5391 23.6934 37.062C21.9501 36.585 20.4486 35.4727 19.4843 33.9441C18.52 32.4156 18.1627 30.5814 18.4829 28.8027C18.803 27.0239 19.7774 25.4294 21.2142 24.333C22.6509 23.2366 24.4461 22.7177 26.2462 22.8784C28.0464 23.0392 29.7212 23.8679 30.941 25.2014C32.1608 26.535 32.8373 28.2769 32.8373 30.0842C32.837 30.9453 32.6833 31.7995 32.3833 32.6066Z" fill="#3F3D56"/>
<path d="M29.3912 28.4044H21.8103C21.4105 28.4044 21.027 28.5633 20.7443 28.846C20.4616 29.1287 20.3027 29.5122 20.3027 29.912C20.3027 30.3118 20.4616 30.6953 20.7443 30.978C21.027 31.2607 21.4105 31.4195 21.8103 31.4195H29.3912C29.791 31.4195 30.1745 31.2607 30.4572 30.978C30.7399 30.6953 30.8987 30.3118 30.8987 29.912C30.8987 29.5122 30.7399 29.1287 30.4572 28.846C30.1745 28.5633 29.791 28.4044 29.3912 28.4044Z" fill="#3F3D56"/>
<path d="M32.3833 42.9579C32.3557 42.9071 32.3273 42.8572 32.298 42.8081C32.2972 42.8063 32.2963 42.8055 32.2954 42.8037C31.6176 41.6434 30.6497 40.6793 29.4867 40.006C28.3238 39.3327 27.0058 38.9733 25.662 38.9632C24.3182 38.953 22.9949 39.2925 21.8219 39.9482C20.649 40.6039 19.6667 41.5533 18.9714 42.7033C18.2761 43.8533 17.8919 45.1643 17.8562 46.5076C17.8206 47.8509 18.1349 49.1804 18.7682 50.3656C19.4016 51.5508 20.3322 52.551 21.4688 53.2679C22.6054 53.9849 23.9088 54.394 25.2512 54.455C25.333 54.4594 25.4158 54.4619 25.4984 54.4619C25.5329 54.4637 25.5665 54.4637 25.601 54.4637C26.9859 54.4657 28.3457 54.094 29.537 53.3877C30.831 52.6219 31.8762 51.4986 32.547 50.1529C32.5478 50.1512 32.5487 50.1503 32.5495 50.1486C32.5754 50.0969 32.6004 50.0443 32.6254 49.9909C33.1435 48.8829 33.3917 47.6678 33.3496 46.4454C33.3075 45.2229 32.9764 44.0278 32.3833 42.9579ZM32.4574 49.9436C32.4324 49.997 32.4065 50.0495 32.3798 50.1012C31.7391 51.3751 30.7542 52.4441 29.537 53.187C28.3519 53.9108 26.9897 54.293 25.601 54.2914C25.5381 54.2914 25.4761 54.2905 25.4132 54.2888C25.3865 54.2888 25.3598 54.2879 25.333 54.2862C24.0177 54.2402 22.737 53.8526 21.617 53.1615C20.497 52.4703 19.5762 51.4995 18.9452 50.3445C18.3142 49.1895 17.9948 47.8901 18.0184 46.5742C18.042 45.2583 18.4078 43.9712 19.0798 42.8396C19.7519 41.708 20.7069 40.7708 21.851 40.1203C22.9951 39.4698 24.2889 39.1283 25.605 39.1296C26.9211 39.1309 28.2143 39.4747 29.3571 40.1274C30.5 40.7801 31.4533 41.7191 32.1231 42.852C32.124 42.8537 32.1249 42.8546 32.1257 42.8563C32.1559 42.9054 32.1851 42.9554 32.2127 43.0053C32.8039 44.0585 33.1346 45.2378 33.1772 46.4447C33.2197 47.6517 32.9729 48.8514 32.4574 49.9436Z" fill="#3F3D56"/>
<path d="M31.5596 43.1871C31.4086 43.0796 31.228 43.0215 31.0427 43.0209H27.6545C27.4185 43.0209 27.1922 43.1146 27.0253 43.2815C26.8584 43.4484 26.7646 43.6748 26.7646 43.9108C26.7646 44.1468 26.8584 44.3731 27.0253 44.54C27.1922 44.7069 27.4185 44.8007 27.6545 44.8007H31.0427C31.1032 44.8008 31.1635 44.7948 31.2227 44.7826C31.2817 44.7698 31.3394 44.7517 31.395 44.7283C31.5399 44.6659 31.6655 44.5661 31.7591 44.4391C31.8527 44.3122 31.9108 44.1626 31.9276 44.0058C31.9443 43.849 31.919 43.6905 31.8544 43.5466C31.7897 43.4028 31.688 43.2787 31.5596 43.1871Z" fill="#3F3D56"/>
<path d="M27.88 44.3624C28.1295 44.3624 28.3318 44.1602 28.3318 43.9107C28.3318 43.6611 28.1295 43.4589 27.88 43.4589C27.6305 43.4589 27.4282 43.6611 27.4282 43.9107C27.4282 44.1602 27.6305 44.3624 27.88 44.3624Z" fill="#F1F1F1"/>
<path d="M29.3483 44.3624C29.5978 44.3624 29.8001 44.1602 29.8001 43.9107C29.8001 43.6611 29.5978 43.4589 29.3483 43.4589C29.0988 43.4589 28.8965 43.6611 28.8965 43.9107C28.8965 44.1602 29.0988 44.3624 29.3483 44.3624Z" fill="#F1F1F1"/>
<path d="M30.8168 44.3624C31.0663 44.3624 31.2686 44.1602 31.2686 43.9107C31.2686 43.6611 31.0663 43.4589 30.8168 43.4589C30.5673 43.4589 30.365 43.6611 30.365 43.9107C30.365 44.1602 30.5673 44.3624 30.8168 44.3624Z" fill="#6C63FF"/>
<path d="M47.8325 29.0205C46.6576 29.7251 44.5644 30.608 42.4253 29.7007L41.0425 29.1141L43.8135 26.0079C41.6023 23.5699 40.379 20.3953 40.3823 17.1039C40.3857 13.8125 41.6155 10.6404 43.8317 8.20691C46.0478 5.77339 49.0913 4.25306 52.3681 3.94267C55.6449 3.63228 58.9197 4.55412 61.5534 6.52824C64.1871 8.50236 65.9906 11.3871 66.6119 14.6193C67.2332 17.8516 66.6277 21.1994 64.9136 24.0092C63.1995 26.8191 60.4999 28.8894 57.3416 29.816C54.1833 30.7425 50.793 30.4589 47.8325 29.0205Z" fill="white"/>
<path d="M47.8398 29.1879C46.7108 29.8507 44.5602 30.7668 42.3676 29.8366L40.7951 29.1696L43.6153 26.0083C41.8606 24.0346 40.7292 21.5857 40.3635 18.9702C39.9979 16.3547 40.4143 13.6895 41.5604 11.3102C42.7065 8.9309 44.531 6.94394 46.8042 5.59955C49.0773 4.25516 51.6975 3.61347 54.3346 3.75527C56.9718 3.89708 59.508 4.81604 61.6238 6.39644C63.7397 7.97684 65.3407 10.148 66.225 12.6365C67.1094 15.1249 67.2376 17.8195 66.5936 20.3807C65.9496 22.9419 64.5621 25.2553 62.6058 27.0295C60.6412 28.8221 58.185 29.9856 55.5534 30.3703C52.9218 30.755 50.2353 30.3432 47.8398 29.1879ZM63.3093 8.32615C62.155 7.05272 60.7611 6.01917 59.2072 5.28453C57.6534 4.54988 55.97 4.12854 54.2533 4.04456C52.5366 3.96057 50.8202 4.2156 49.202 4.79507C47.5839 5.37454 46.0958 6.2671 44.8226 7.42177C43.5495 8.57645 42.5163 9.97061 41.782 11.5246C41.0478 13.0787 40.6269 14.7621 40.5433 16.4789C40.4598 18.1956 40.7152 19.912 41.2951 21.53C41.875 23.148 42.7679 24.6359 43.9229 25.9087L44.0121 26.0071L41.29 29.0587L42.483 29.5647C44.6006 30.463 46.696 29.5299 47.7566 28.8938L47.8252 28.8526L47.8971 28.8876C50.6312 30.2161 53.7424 30.5513 56.6967 29.8357C59.651 29.1202 62.264 27.3984 64.0872 24.9662C65.9103 22.5339 66.8299 19.5428 66.6879 16.5064C66.546 13.47 65.3514 10.5777 63.3093 8.32615Z" fill="#6C63FF"/>
<path opacity="0.1" d="M64.7882 17.0349C64.7881 13.9914 63.6483 11.0583 61.5936 8.81315C59.5388 6.56802 56.7178 5.17358 53.6863 4.90445C54.041 4.87338 54.3999 4.85657 54.7627 4.85657C57.9913 4.85851 61.087 6.14244 63.3693 8.42611C65.6516 10.7098 66.9336 13.8063 66.9336 17.0349C66.9336 20.2635 65.6516 23.36 63.3693 25.6437C61.087 27.9274 57.9913 29.2113 54.7627 29.2132C54.4004 29.2132 54.0422 29.1962 53.688 29.1652C56.7192 28.8957 59.5397 27.5011 61.5941 25.256C63.6486 23.0109 64.7881 20.0781 64.7882 17.0349Z" fill="black"/>
<path d="M55.3349 14.6064H46.6328V15.4145H55.3349V14.6064Z" fill="#6C63FF"/>
<path d="M61.7998 17.402H46.6328V18.2101H61.7998V17.402Z" fill="#6C63FF"/>
<path d="M61.785 20.1974H46.6328V21.0056H61.785V20.1974Z" fill="#6C63FF"/>
</svg>
