<svg width="24" height="24" viewBox="0 0 24 24" fill="none" xmlns="http://www.w3.org/2000/svg">
<path fill-rule="evenodd" clip-rule="evenodd" d="M14.0237 3.63297C13.2545 3.28502 12.4024 3.09229 11.5093 3.09229C8.39705 3.09229 5.78267 5.43267 5.4395 8.5259L5.19698 10.712L5.19107 10.7649C5.07959 11.7377 4.76335 12.6759 4.26316 13.5177L4.23585 13.5634L3.68112 14.4893L3.66187 14.5215C3.42647 14.9144 3.22117 15.257 3.08589 15.5449C2.94877 15.8366 2.81941 16.1986 2.88322 16.5991C2.94806 17.0061 3.15766 17.376 3.47347 17.6408C3.78424 17.9013 4.16124 17.9764 4.48201 18.0087C4.79847 18.0406 5.19791 18.0406 5.65592 18.0406L5.69339 18.0406H17.3251L17.3626 18.0406C17.8206 18.0406 18.22 18.0406 18.5365 18.0087C18.8573 17.9764 19.2343 17.9013 19.5451 17.6408C19.8609 17.376 20.0705 17.0061 20.1353 16.5991C20.1991 16.1986 20.0697 15.8366 19.9326 15.5449C19.7973 15.257 19.5921 14.9144 19.3567 14.5215L19.3374 14.4893L18.7827 13.5634L18.7554 13.5177C18.2552 12.6759 17.9389 11.7377 17.8274 10.7649L17.8215 10.712L17.7731 10.2755C17.321 10.4629 16.8251 10.5664 16.3048 10.5664C16.3019 10.5664 16.2991 10.5664 16.2962 10.5664L16.3307 10.8774L16.3372 10.9356C16.4728 12.1189 16.8574 13.26 17.4658 14.2839L17.4959 14.3342L18.0506 15.2602C18.3109 15.6947 18.4759 15.9718 18.5751 16.1829C18.6302 16.3002 18.646 16.3597 18.6505 16.3805C18.6412 16.418 18.6218 16.4522 18.5944 16.4794C18.5743 16.4863 18.5151 16.5033 18.3861 16.5163C18.1542 16.5397 17.8316 16.5406 17.3251 16.5406H5.69339C5.1869 16.5406 4.86436 16.5397 4.63238 16.5163C4.50338 16.5033 4.44424 16.4863 4.42413 16.4794C4.39671 16.4522 4.37731 16.418 4.36805 16.3805C4.37249 16.3597 4.38831 16.3002 4.44345 16.1829C4.54262 15.9718 4.7076 15.6947 4.96789 15.2602L5.52262 14.3342L5.5527 14.2839C6.16108 13.26 6.54572 12.1189 6.68131 10.9356L6.68783 10.8774L6.93036 8.69129C7.18923 6.35782 9.16147 4.59229 11.5093 4.59229C12.0166 4.59229 12.5063 4.67472 12.965 4.82749C13.2312 4.3591 13.5928 3.95202 14.0237 3.63297ZM15.8131 4.86654C15.2998 5.00247 14.8709 5.34616 14.6214 5.80233C15.4051 6.52026 15.9421 7.50871 16.0812 8.6323C16.1546 8.64082 16.2292 8.64521 16.3048 8.64521C16.7725 8.64521 17.201 8.4776 17.5339 8.19908C17.3188 6.89829 16.6988 5.7459 15.8131 4.86654Z" fill="#2A2968"/>
<path d="M8.7301 17.6805C8.89403 18.3953 9.25527 19.0271 9.75778 19.4776C10.2603 19.9282 10.876 20.1724 11.5094 20.1724C12.1428 20.1724 12.7585 19.9282 13.261 19.4776C13.7635 19.0271 14.1247 18.3954 14.2887 17.6805" stroke="#201F68" stroke-width="1.5" stroke-linecap="round"/>
<ellipse cx="16.3049" cy="6.72392" rx="1.91822" ry="1.92118" fill="#2A2968"/>
</svg>
