<svg width="25" height="25" viewBox="0 0 25 25" fill="none" xmlns="http://www.w3.org/2000/svg">
<path d="M7.40228 3.90601L8.01555 3.29274C8.40607 2.90221 9.03924 2.90221 9.42976 3.29274L12.0155 5.87853C12.4061 6.26905 12.4061 6.90222 12.0155 7.29274L10.2231 9.08515C9.92426 9.38403 9.85016 9.84064 10.0392 10.2187C11.1319 12.4042 12.9041 14.1763 15.0896 15.2691C15.4677 15.4581 15.9243 15.384 16.2231 15.0851L18.0155 13.2927C18.4061 12.9022 19.0392 12.9022 19.4298 13.2927L22.0155 15.8785C22.4061 16.269 22.4061 16.9022 22.0156 17.2927L21.4023 17.906C19.2909 20.0174 15.9484 20.2549 13.5596 18.4634L12.3512 17.5571C10.6077 16.2494 9.05888 14.7006 7.75123 12.9571L6.84492 11.7487C5.05338 9.35993 5.29092 6.01736 7.40228 3.90601Z" fill="#6610F2"/>
</svg>
