<svg width="26" height="26" viewBox="0 0 26 26" fill="none" xmlns="http://www.w3.org/2000/svg">
<path fill-rule="evenodd" clip-rule="evenodd" d="M11.2645 13.8217L7.72743 12.6427C5.693 11.9646 4.67578 11.6255 4.67578 11.0024C4.67578 10.3792 5.693 10.0402 7.72743 9.36203L18.2757 5.84592C19.7072 5.36876 20.423 5.13018 20.8008 5.508C21.1786 5.88581 20.94 6.60155 20.4629 8.03304L16.9468 18.5814C16.2686 20.6158 15.9295 21.633 15.3064 21.633C14.6833 21.633 14.3442 20.6158 13.6661 18.5814L12.4871 15.0444L16.9595 10.572C17.2972 10.2344 17.2972 9.68697 16.9595 9.34935C16.6219 9.01173 16.0745 9.01173 15.7369 9.34935L11.2645 13.8217Z" fill="#6610F2"/>
</svg>
