<svg width="14" height="19" viewBox="0 0 14 19" fill="none" xmlns="http://www.w3.org/2000/svg">
<path d="M7 13L6.64645 13.3536L7 13.7071L7.35355 13.3536L7 13ZM7.5 1C7.5 0.723858 7.27614 0.5 7 0.5C6.72386 0.5 6.5 0.723858 6.5 1L7.5 1ZM1 17.5C0.723858 17.5 0.5 17.7239 0.5 18C0.5 18.2761 0.723858 18.5 1 18.5V17.5ZM13 18.5C13.2761 18.5 13.5 18.2761 13.5 18C13.5 17.7239 13.2761 17.5 13 17.5V18.5ZM0.646447 7.35355L6.64645 13.3536L7.35355 12.6464L1.35355 6.64645L0.646447 7.35355ZM7.35355 13.3536L13.3536 7.35355L12.6464 6.64645L6.64645 12.6464L7.35355 13.3536ZM7.5 13L7.5 1L6.5 1L6.5 13L7.5 13ZM1 18.5H13V17.5H1V18.5Z" fill="#6610F2"/>
</svg>
