<svg width="114" height="28" viewBox="0 0 114 28" fill="none" xmlns="http://www.w3.org/2000/svg">
<path d="M11.0932 7.85922C12.4128 7.85922 13.5746 8.0672 14.5787 8.48316C15.5971 8.88478 16.4792 9.48003 17.2251 10.2689L15.4393 12.6571C14.8225 12.0117 14.1556 11.5311 13.4384 11.2156C12.7355 10.8857 11.9323 10.7207 11.0287 10.7207C10.498 10.7207 10.0677 10.7781 9.73776 10.8929C9.40786 11.0076 9.17119 11.1654 9.02776 11.3662C8.88432 11.567 8.8126 11.7965 8.8126 12.0547C8.8126 12.3559 8.94887 12.6141 9.22139 12.8292C9.50826 13.03 9.96725 13.2022 10.5984 13.3456L12.9866 13.8835C14.4066 14.2134 15.4465 14.6939 16.1063 15.325C16.7661 15.9561 17.096 16.7952 17.096 17.8423C17.096 18.8463 16.8378 19.6998 16.3214 20.4026C15.8051 21.0911 15.095 21.6146 14.1914 21.9732C13.2878 22.3174 12.255 22.4896 11.0932 22.4896C10.1465 22.4896 9.24291 22.3892 8.3823 22.1884C7.52169 21.9732 6.74714 21.672 6.05866 21.2847C5.37017 20.8974 4.78926 20.4528 4.31592 19.9508L6.10169 17.4765C6.46027 17.8925 6.89775 18.2654 7.41411 18.5953C7.94482 18.9109 8.51856 19.1619 9.13533 19.3483C9.76645 19.5348 10.4047 19.628 11.0502 19.628C11.5522 19.628 11.9682 19.5778 12.2981 19.4774C12.6423 19.377 12.8933 19.2264 13.0511 19.0256C13.2089 18.8248 13.2878 18.5881 13.2878 18.3156C13.2878 18.0144 13.1802 17.7634 12.965 17.5626C12.7499 17.3474 12.3411 17.1681 11.7387 17.0247L9.11382 16.4438C8.31058 16.2573 7.59341 16.0135 6.9623 15.7123C6.34553 15.3967 5.85785 14.9808 5.49926 14.4644C5.14067 13.9337 4.96138 13.2739 4.96138 12.485C4.96138 11.5957 5.20522 10.8068 5.6929 10.1183C6.18058 9.41548 6.88341 8.86326 7.80139 8.46164C8.71937 8.06003 9.81665 7.85922 11.0932 7.85922ZM23.648 8.09588V18.4447C23.648 18.9611 23.7699 19.334 24.0138 19.5635C24.272 19.7786 24.6234 19.8862 25.068 19.8862C25.4123 19.8862 25.7063 19.8504 25.9501 19.7786C26.2083 19.6926 26.4378 19.5707 26.6386 19.4129L27.0259 21.672C26.6673 21.9302 26.2155 22.131 25.6705 22.2744C25.1254 22.4178 24.566 22.4896 23.9923 22.4896C23.1747 22.4896 22.4647 22.3748 21.8623 22.1453C21.2742 21.9158 20.8152 21.5501 20.4853 21.048C20.1697 20.546 20.0048 19.8791 19.9904 19.0471V9.1071L23.648 8.09588ZM26.8538 11.5168V14.1201H18.1401V11.5168H26.8538ZM32.1793 22.4896C31.4478 22.4896 30.8023 22.3676 30.2429 22.1238C29.6979 21.8656 29.2676 21.4568 28.952 20.8974C28.6365 20.338 28.4787 19.6065 28.4787 18.7029V11.5168H32.1363V17.8423C32.1363 18.5308 32.2725 19.0113 32.5451 19.2838C32.8176 19.5563 33.2049 19.6926 33.7069 19.6926C33.9651 19.6926 34.2089 19.6496 34.4384 19.5635C34.6679 19.4631 34.8687 19.3197 35.0408 19.1332C35.213 18.9324 35.342 18.6814 35.4281 18.3802C35.5285 18.0646 35.5787 17.6988 35.5787 17.2829V11.5168H39.2363V22.2744H35.966L35.8584 20.252C35.5142 21.0122 35.0337 21.5788 34.4169 21.9517C33.8001 22.3103 33.0543 22.4896 32.1793 22.4896ZM45.823 22.4896C44.9337 22.4896 44.152 22.2744 43.4778 21.8441C42.818 21.3995 42.3017 20.7612 41.9287 19.9293C41.5701 19.0973 41.3908 18.1005 41.3908 16.9386C41.3908 15.7338 41.5773 14.7154 41.9502 13.8835C42.3375 13.0516 42.8682 12.4133 43.5424 11.9686C44.2309 11.524 45.0197 11.3017 45.909 11.3017C46.8844 11.3017 47.6661 11.6029 48.2542 12.2053C48.8566 12.7934 49.2439 13.5464 49.416 14.4644L49.0718 14.9162V6.95558H52.7294V22.2744H49.4591L49.2224 18.6168L49.6527 18.9396C49.5666 19.6567 49.3443 20.2807 48.9857 20.8114C48.6415 21.3421 48.1968 21.758 47.6518 22.0593C47.1211 22.3461 46.5115 22.4896 45.823 22.4896ZM47.0924 19.8002C47.5083 19.8002 47.8598 19.6926 48.1466 19.4774C48.4478 19.2479 48.6773 18.9109 48.8351 18.4662C48.9929 18.0216 49.0718 17.4765 49.0718 16.8311C49.0718 16.2286 48.9929 15.7194 48.8351 15.3035C48.6917 14.8732 48.4694 14.5505 48.1681 14.3353C47.8813 14.1058 47.5299 13.9911 47.1139 13.9911C46.4828 13.9911 45.9808 14.2277 45.6078 14.7011C45.2492 15.16 45.07 15.8916 45.07 16.8956C45.07 17.8997 45.2492 18.6383 45.6078 19.1117C45.9664 19.5707 46.4613 19.8002 47.0924 19.8002ZM66.1754 11.5168L62.2596 22.2744C61.858 23.4075 61.4205 24.3112 60.9472 24.9853C60.4738 25.6595 59.9144 26.1472 59.269 26.4484C58.6235 26.7496 57.849 26.9002 56.9453 26.9002C56.3429 26.9002 55.7907 26.8356 55.2887 26.7065C54.7866 26.5775 54.3492 26.3982 53.9762 26.1687L54.7078 23.6944C54.9659 23.8809 55.2385 24.01 55.5253 24.0817C55.8122 24.1678 56.178 24.2108 56.6226 24.2108C57.0386 24.2108 57.3756 24.1391 57.6338 23.9956C57.9064 23.8522 58.1215 23.5797 58.2793 23.1781L58.559 22.5111L57.3111 19.585L54.0838 11.5168H58.1072L59.7638 17.6486L60.2802 19.9293L60.8826 17.5626L62.5393 11.5168H66.1754ZM71.8056 22.4896C70.7299 22.4896 69.7258 22.3174 68.7935 21.9732C67.8755 21.6146 67.1153 21.1054 66.5129 20.4456L68.2341 18.4232C68.5927 18.8822 69.066 19.2695 69.6541 19.585C70.2565 19.8862 70.9235 20.0368 71.655 20.0368C72.0997 20.0368 72.4654 19.9723 72.7523 19.8432C73.0392 19.7141 73.1826 19.5133 73.1826 19.2408C73.1826 19.04 73.1109 18.8822 72.9675 18.7674C72.824 18.6383 72.5372 18.5308 72.1068 18.4447L70.6008 18.1435C69.2525 17.871 68.2915 17.4693 67.7177 16.9386C67.1583 16.3936 66.8786 15.6836 66.8786 14.8086C66.8786 14.2206 67.0579 13.6612 67.4165 13.1304C67.7751 12.5854 68.3273 12.1479 69.0732 11.818C69.8191 11.4738 70.7729 11.3017 71.9347 11.3017C73.0248 11.3017 73.9858 11.4594 74.8178 11.775C75.6497 12.0905 76.3095 12.5495 76.7972 13.152L75.0544 15.1314C74.7102 14.7011 74.2655 14.364 73.7205 14.1201C73.1754 13.8763 72.6304 13.7544 72.0853 13.7544C71.7411 13.7544 71.447 13.7902 71.2032 13.862C70.9737 13.9193 70.8016 14.0054 70.6868 14.1201C70.5721 14.2349 70.5147 14.3783 70.5147 14.5504C70.5147 14.7369 70.6008 14.9019 70.7729 15.0453C70.9594 15.1744 71.2964 15.2891 71.7841 15.3895L73.742 15.7768C74.8465 15.9776 75.6425 16.3434 76.1302 16.8741C76.6179 17.4048 76.8617 18.0431 76.8617 18.7889C76.8617 19.4918 76.6752 20.1229 76.3023 20.6823C75.9294 21.2417 75.37 21.6863 74.6241 22.0162C73.8783 22.3318 72.9388 22.4896 71.8056 22.4896ZM83.2776 22.4896C82.2019 22.4896 81.1978 22.3174 80.2655 21.9732C79.3475 21.6146 78.5873 21.1054 77.9849 20.4456L79.7061 18.4232C80.0647 18.8822 80.538 19.2695 81.1261 19.585C81.7285 19.8862 82.3955 20.0368 83.127 20.0368C83.5717 20.0368 83.9374 19.9723 84.2243 19.8432C84.5112 19.7141 84.6546 19.5133 84.6546 19.2408C84.6546 19.04 84.5829 18.8822 84.4394 18.7674C84.296 18.6383 84.0091 18.5308 83.5788 18.4447L82.0728 18.1435C80.7245 17.871 79.7635 17.4693 79.1897 16.9386C78.6303 16.3936 78.3506 15.6836 78.3506 14.8086C78.3506 14.2206 78.5299 13.6612 78.8885 13.1304C79.2471 12.5854 79.7993 12.1479 80.5452 11.818C81.291 11.4738 82.2449 11.3017 83.4067 11.3017C84.4968 11.3017 85.4578 11.4594 86.2897 11.775C87.1217 12.0905 87.7815 12.5495 88.2691 13.152L86.5264 15.1314C86.1822 14.7011 85.7375 14.364 85.1925 14.1201C84.6474 13.8763 84.1024 13.7544 83.5573 13.7544C83.2131 13.7544 82.919 13.7902 82.6752 13.862C82.4457 13.9193 82.2736 14.0054 82.1588 14.1201C82.0441 14.2349 81.9867 14.3783 81.9867 14.5504C81.9867 14.7369 82.0728 14.9019 82.2449 15.0453C82.4314 15.1744 82.7684 15.2891 83.2561 15.3895L85.214 15.7768C86.3184 15.9776 87.1145 16.3434 87.6022 16.8741C88.0899 17.4048 88.3337 18.0431 88.3337 18.7889C88.3337 19.4918 88.1472 20.1229 87.7743 20.6823C87.4014 21.2417 86.842 21.6863 86.0961 22.0162C85.3502 22.3318 84.4108 22.4896 83.2776 22.4896ZM95.4181 22.4896C94.2276 22.4896 93.1948 22.2672 92.3199 21.8226C91.4593 21.3779 90.7923 20.7397 90.319 19.9077C89.8456 19.0758 89.609 18.0718 89.609 16.8956C89.609 15.7194 89.8456 14.7154 90.319 13.8835C90.7923 13.0516 91.4521 12.4133 92.2984 11.9686C93.159 11.524 94.1415 11.3017 95.246 11.3017C96.3791 11.3017 97.3401 11.524 98.129 11.9686C98.9322 12.3989 99.5418 13.0014 99.9578 13.7759C100.374 14.5361 100.582 15.4111 100.582 16.4008C100.582 16.6589 100.575 16.9171 100.56 17.1753C100.546 17.4335 100.524 17.6486 100.496 17.8208H91.9756V15.8629H98.882L97.1393 16.5299C97.1393 15.6692 96.9815 15.0094 96.666 14.5504C96.3648 14.0915 95.8914 13.862 95.246 13.862C94.787 13.862 94.3925 13.9695 94.0626 14.1847C93.7471 14.3998 93.5032 14.7369 93.3311 15.1959C93.1733 15.6549 93.0944 16.243 93.0944 16.9602C93.0944 17.663 93.1877 18.2367 93.3741 18.6814C93.5606 19.1117 93.826 19.4272 94.1702 19.628C94.5144 19.8145 94.9304 19.9077 95.4181 19.9077C95.9631 19.9077 96.3934 19.8002 96.709 19.585C97.0389 19.3699 97.2827 19.0686 97.4405 18.6814L100.367 19.6496C100.166 20.2663 99.8144 20.7899 99.3123 21.2202C98.8247 21.6361 98.2366 21.9517 97.5481 22.1668C96.8739 22.382 96.1639 22.4896 95.4181 22.4896ZM113.072 11.5168L109.156 22.2744C108.754 23.4075 108.317 24.3112 107.844 24.9853C107.37 25.6595 106.811 26.1472 106.165 26.4484C105.52 26.7496 104.745 26.9002 103.842 26.9002C103.239 26.9002 102.687 26.8356 102.185 26.7065C101.683 26.5775 101.246 26.3982 100.873 26.1687L101.604 23.6944C101.862 23.8809 102.135 24.01 102.422 24.0817C102.709 24.1678 103.074 24.2108 103.519 24.2108C103.935 24.2108 104.272 24.1391 104.53 23.9956C104.803 23.8522 105.018 23.5797 105.176 23.1781L105.455 22.5111L104.208 19.585L100.98 11.5168H105.004L106.66 17.6486L107.177 19.9293L107.779 17.5626L109.436 11.5168H113.072Z" fill="#201F68"/>
<path d="M16.9263 2.78224C16.3925 2.63857 11.3651 1.58016 8.91817 1.06892C6.37259 2.25057 1.23029 4.64342 1.02568 4.76161C0.769916 4.90936 0.801857 5.04166 0.85061 5.17206C0.889612 5.27639 1.21459 5.38018 1.37221 5.41904L2.97758 5.76468C2.53624 6.56189 2.49313 7.65962 2.52674 8.10883C2.17409 8.45437 2.04737 8.68949 2.13205 9.13861C2.19979 9.49791 2.54695 9.69773 2.71206 9.75273C2.73366 11.9077 1.48152 13.0342 1.45924 13.1386C1.44142 13.2221 1.61518 13.3135 1.70428 13.3488C2.15149 13.5702 2.53985 13.6623 2.67814 13.6807L2.94714 13.6504C4.36629 13.0691 3.9458 10.6782 3.55815 9.55542C3.55815 9.55542 3.83052 9.25292 3.8112 8.77944C3.79574 8.40066 3.47034 8.17234 3.30957 8.10552C3.2976 7.99928 3.30925 7.58913 3.45167 6.79844C3.59409 6.00775 4.47369 5.44313 4.89569 5.25966C5.92875 4.70718 8.13679 3.53188 8.70439 3.25045C9.27198 2.96902 9.45408 3.15461 9.47419 3.28258C9.61387 3.41406 9.69194 3.76427 8.88678 4.11324C8.08162 4.46222 5.95865 5.62681 4.9978 6.16548L9.62331 7.17292L16.3992 3.99682C16.8244 3.84131 17.6712 3.46951 17.6574 3.22644C17.6402 2.9226 17.5936 2.96184 16.9263 2.78224Z" fill="#201F68"/>
<path d="M9.72164 8.0452L4.30574 6.97397C4.19544 7.20384 4.23945 7.69492 4.27525 7.91172C4.60245 8.09567 4.96728 8.46225 5.02022 8.93193C5.06258 9.30768 4.90182 9.79466 4.81614 9.99119C5.04361 10.1966 5.81079 10.5076 6.16595 10.6374C6.68307 10.7943 8.1776 11.0528 10.0187 10.8316C12.3202 10.5552 13.657 9.8779 14.3682 9.39003C14.9371 8.99972 15.1422 8.45338 15.1737 8.22899L14.8863 5.67928L9.72164 8.0452Z" fill="#201F68"/>
</svg>
