<svg width="23" height="20" viewBox="0 0 23 20" fill="none" xmlns="http://www.w3.org/2000/svg">
<path d="M21.5183 10.22L21.8936 9.91982L22.1338 10.22L21.8936 10.5203L21.5183 10.22ZM12.8675 10.7006C12.6021 10.7006 12.3869 10.4855 12.3869 10.22C12.3869 9.95462 12.6021 9.73945 12.8675 9.73945V10.7006ZM18.0488 5.11384L21.8936 9.91982L21.143 10.5203L17.2982 5.71429L18.0488 5.11384ZM21.8936 10.5203L18.0488 15.3263L17.2982 14.7258L21.143 9.91982L21.8936 10.5203ZM21.5183 10.7006H12.8675V9.73945H21.5183V10.7006Z" fill="#2A2968"/>
<path d="M12.8676 6.5019V5.78732C12.8676 4.23178 12.8676 3.45401 12.412 2.91623C11.9564 2.37845 11.1893 2.25058 9.65488 1.99485L8.04852 1.72713C4.93127 1.20758 3.37265 0.947813 2.35294 1.81164C1.33323 2.67546 1.33323 4.25559 1.33323 7.41584V13.0239C1.33323 16.1842 1.33323 17.7643 2.35294 18.6281C3.37265 19.4919 4.93127 19.2322 8.04852 18.7126L9.65487 18.4449C11.1893 18.1892 11.9564 18.0613 12.412 17.5235C12.8676 16.9857 12.8676 16.208 12.8676 14.6524V14.1281" stroke="#2A2968" stroke-width="0.961196"/>
</svg>
