<svg width="18" height="20" viewBox="0 0 18 20" fill="none" xmlns="http://www.w3.org/2000/svg">
<path d="M1.45776 7.37216C1.45776 4.64359 1.45776 3.2793 2.30542 2.43164C3.15308 1.58398 4.51737 1.58398 7.24594 1.58398H11.1047C13.8333 1.58398 15.1976 1.58398 16.0452 2.43164C16.8929 3.2793 16.8929 4.64359 16.8929 7.37216V13.9587C16.8929 16.5473 16.8929 17.8416 16.0784 18.2374C15.2639 18.6333 14.2462 17.8337 12.2108 16.2344L11.5594 15.7226C10.4149 14.8233 9.84264 14.3737 9.17533 14.3737C8.50803 14.3737 7.93578 14.8233 6.79129 15.7226L6.13988 16.2344C4.10445 17.8337 3.08674 18.6333 2.27225 18.2374C1.45776 17.8416 1.45776 16.5473 1.45776 13.9587V7.37216Z" stroke="#2A2968" stroke-width="1.92"/>
</svg>
