<svg width="12" height="12" viewBox="0 0 12 12" fill="none" xmlns="http://www.w3.org/2000/svg">
<path fill-rule="evenodd" clip-rule="evenodd" d="M1.15972 4.63889C1.15972 2.7174 2.7174 1.15972 4.63889 1.15972C6.56038 1.15972 8.11806 2.7174 8.11806 4.63889C8.11806 6.56038 6.56038 8.11806 4.63889 8.11806C2.7174 8.11806 1.15972 6.56038 1.15972 4.63889ZM4.63889 0C2.0769 0 0 2.0769 0 4.63889C0 7.20088 2.0769 9.27778 4.63889 9.27778C5.71089 9.27778 6.69795 8.91416 7.48348 8.30353L10.6073 11.4274C10.8338 11.6538 11.2009 11.6538 11.4274 11.4274C11.6538 11.2009 11.6538 10.8338 11.4274 10.6073L8.30353 7.48348C8.91416 6.69795 9.27778 5.71089 9.27778 4.63889C9.27778 2.0769 7.20088 0 4.63889 0Z" fill="#9F9F9F"/>
</svg>
