<svg width="15" height="15" viewBox="0 0 15 15" fill="none" xmlns="http://www.w3.org/2000/svg">
<path d="M2.42822 5.4834C2.42822 4.10269 3.54751 2.9834 4.92822 2.9834L9.92822 2.9834C11.3089 2.9834 12.4282 4.10269 12.4282 5.4834V5.90006C12.4282 6.13018 12.2417 6.31673 12.0116 6.31673H11.8727C11.259 6.31673 10.7616 6.81419 10.7616 7.42784V7.42784C10.7616 8.04149 11.259 8.53895 11.8727 8.53895H12.0116C12.2417 8.53895 12.4282 8.7255 12.4282 8.95562V9.37229C12.4282 10.753 11.3089 11.8723 9.92822 11.8723H4.92822C3.54751 11.8723 2.42822 10.753 2.42822 9.37229V8.95562C2.42822 8.7255 2.61477 8.53895 2.84489 8.53895H2.98378C3.59743 8.53895 4.09489 8.04149 4.09489 7.42784V7.42784C4.09489 6.81419 3.59743 6.31673 2.98378 6.31673H2.84489C2.61477 6.31673 2.42822 6.13018 2.42822 5.90006V5.4834Z" stroke="#2A2968" stroke-width="0.777778"/>
<path d="M7.18176 6.69942C7.27517 6.45777 7.32187 6.33694 7.39774 6.3202C7.4177 6.31579 7.43832 6.31579 7.45827 6.3202C7.53414 6.33694 7.58084 6.45777 7.67425 6.69942C7.72737 6.83684 7.75393 6.90556 7.80362 6.95229C7.81756 6.9654 7.83269 6.97707 7.8488 6.98715C7.90624 7.02308 7.97794 7.02974 8.12135 7.04307C8.36411 7.06563 8.48549 7.07691 8.52256 7.14874C8.53023 7.16361 8.53545 7.17972 8.538 7.19638C8.55029 7.27685 8.46105 7.3611 8.28259 7.5296L8.23303 7.57639C8.14959 7.65517 8.10788 7.69456 8.08375 7.74371C8.06927 7.7732 8.05957 7.80495 8.05502 7.83771C8.04744 7.89231 8.05965 7.94945 8.08409 8.06373L8.09282 8.10456C8.13663 8.30951 8.15854 8.41198 8.13119 8.46235C8.10663 8.50759 8.06138 8.53656 8.01139 8.53903C7.95575 8.54179 7.87734 8.47549 7.72052 8.34288C7.6172 8.25551 7.56555 8.21183 7.5082 8.19476C7.45579 8.17917 7.40022 8.17917 7.34781 8.19476C7.29046 8.21183 7.23881 8.25551 7.13549 8.34288C6.97867 8.47549 6.90026 8.54179 6.84462 8.53903C6.79463 8.53656 6.74938 8.50759 6.72482 8.46235C6.69747 8.41198 6.71938 8.30951 6.76319 8.10456L6.77192 8.06373C6.79636 7.94945 6.80857 7.89231 6.80099 7.83771C6.79644 7.80495 6.78674 7.7732 6.77226 7.74371C6.74813 7.69456 6.70642 7.65517 6.62298 7.57639L6.57342 7.5296C6.39496 7.3611 6.30572 7.27685 6.31801 7.19638C6.32056 7.17972 6.32578 7.16361 6.33345 7.14874C6.37052 7.07691 6.4919 7.06563 6.73466 7.04307C6.87807 7.02974 6.94977 7.02308 7.00721 6.98715C7.02332 6.97707 7.03845 6.9654 7.05239 6.95229C7.10209 6.90556 7.12864 6.83684 7.18176 6.69942Z" fill="#2A2968" stroke="#2A2968" stroke-width="0.777778"/>
</svg>
