<svg width="222" height="112" viewBox="0 0 222 112" fill="none" xmlns="http://www.w3.org/2000/svg">
<g clip-path="url(#clip0_626_12668)">
<path d="M200.438 90.8311H32.2137C30.0632 90.8287 28.0014 89.9733 26.4807 88.4527C24.9601 86.932 24.1047 84.8702 24.1023 82.7197V18.8862C24.1047 16.7356 24.9601 14.6739 26.4808 13.1532C28.0014 11.6325 30.0632 10.7772 32.2137 10.7747H200.438C202.589 10.7772 204.65 11.6325 206.171 13.1532C207.692 14.6739 208.547 16.7356 208.549 18.8862V82.7197C208.547 84.8702 207.692 86.932 206.171 88.4527C204.65 89.9733 202.589 90.8287 200.438 90.8311Z" fill="white"/>
<path d="M200.438 90.8311H32.2137C30.0632 90.8287 28.0014 89.9733 26.4807 88.4527C24.9601 86.932 24.1047 84.8702 24.1023 82.7197V18.8862C24.1047 16.7356 24.9601 14.6739 26.4808 13.1532C28.0014 11.6325 30.0632 10.7772 32.2137 10.7747H200.438C202.589 10.7772 204.65 11.6325 206.171 13.1532C207.692 14.6739 208.547 16.7356 208.549 18.8862V82.7197C208.547 84.8702 207.692 86.932 206.171 88.4527C204.65 89.9733 202.589 90.8287 200.438 90.8311ZM32.2137 11.4801C30.2495 11.4801 28.3657 12.2603 26.9768 13.6493C25.5879 15.0382 24.8076 16.9219 24.8076 18.8862V82.7197C24.8076 83.6923 24.9992 84.6553 25.3714 85.5539C25.7436 86.4524 26.2891 87.2689 26.9768 87.9566C27.6646 88.6443 28.481 89.1898 29.3795 89.562C30.2781 89.9342 31.2412 90.1258 32.2137 90.1258H200.438C201.411 90.1258 202.374 89.9342 203.272 89.562C204.171 89.1898 204.987 88.6443 205.675 87.9566C206.363 87.2689 206.908 86.4524 207.28 85.5539C207.653 84.6553 207.844 83.6923 207.844 82.7197V58.651C207.844 46.1405 202.874 34.1424 194.028 25.2961C185.182 16.4498 173.184 11.4801 160.673 11.4801H32.2137Z" fill="#E6E6E6"/>
<path d="M18.9032 104.42C18.972 103.947 18.4767 103.484 17.797 103.385C17.1173 103.286 16.5105 103.589 16.4417 104.062C16.3729 104.535 16.8682 104.998 17.5479 105.097C18.2276 105.196 18.8344 104.893 18.9032 104.42Z" fill="white"/>
<path d="M26.996 103.631C27.0648 103.158 26.5695 102.694 25.8898 102.595C25.2101 102.497 24.6033 102.8 24.5345 103.272C24.4657 103.745 24.9609 104.209 25.6407 104.308C26.3204 104.407 26.9272 104.103 26.996 103.631Z" fill="#3F3D56"/>
<path d="M16.6874 97.8685C16.7562 97.3957 16.2609 96.9322 15.5812 96.8333C14.9015 96.7344 14.2947 97.0376 14.2259 97.5104C14.1571 97.9833 14.6523 98.4467 15.3321 98.5456C16.0118 98.6445 16.6186 98.3414 16.6874 97.8685Z" fill="#FF6584"/>
<path d="M13.1708 95.1848C13.1741 94.7507 12.9319 94.3969 12.63 94.3947C12.328 94.3924 12.0805 94.7424 12.0772 95.1765C12.074 95.6106 12.3161 95.9644 12.6181 95.9667C12.92 95.9689 13.1675 95.6189 13.1708 95.1848Z" fill="#E6E6E6"/>
<path d="M11.9779 90.1862C11.9812 89.7521 11.7391 89.3984 11.4371 89.3961C11.1351 89.3938 10.8876 89.7438 10.8844 90.1779C10.8811 90.612 11.1232 90.9658 11.4252 90.9681C11.7272 90.9703 11.9746 90.6203 11.9779 90.1862Z" fill="#3F3D56"/>
<path d="M21.2516 98.9835C21.2549 98.5494 21.0127 98.1957 20.7108 98.1934C20.4088 98.1911 20.1613 98.5411 20.158 98.9752C20.1548 99.4093 20.3969 99.7631 20.6989 99.7654C21.0009 99.7676 21.2483 99.4176 21.2516 98.9835Z" fill="#E6E6E6"/>
<path d="M17.3407 100.936C17.344 100.502 17.1019 100.148 16.7999 100.146C16.4979 100.144 16.2504 100.494 16.2472 100.928C16.2439 101.362 16.486 101.716 16.788 101.718C17.09 101.72 17.3374 101.37 17.3407 100.936Z" fill="#FF6584"/>
<path d="M22.7848 104.545C22.7881 104.111 22.5459 103.757 22.244 103.755C21.942 103.753 21.6945 104.103 21.6912 104.537C21.688 104.971 21.9301 105.325 22.2321 105.327C22.5341 105.329 22.7815 104.979 22.7848 104.545Z" fill="#3F3D56"/>
<path d="M214.416 2.48176C214.566 1.89135 213.999 1.23837 213.151 1.02329C212.302 0.808204 211.493 1.11246 211.343 1.70287C211.193 2.29328 211.76 2.94627 212.609 3.16136C213.457 3.37644 214.267 3.07217 214.416 2.48176Z" fill="white"/>
<path d="M204.052 2.415C204.202 1.82459 203.635 1.1716 202.786 0.956516C201.938 0.741432 201.128 1.0457 200.979 1.63611C200.829 2.22653 201.396 2.8795 202.245 3.09458C203.093 3.30967 203.903 3.00542 204.052 2.415Z" fill="#3F3D56"/>
<path d="M216.361 11.0808C216.511 10.4903 215.944 9.83737 215.096 9.62229C214.247 9.4072 213.438 9.71146 213.288 10.3019C213.138 10.8923 213.705 11.5453 214.554 11.7604C215.403 11.9754 216.212 11.6712 216.361 11.0808Z" fill="#FF6584"/>
<path d="M218.777 14.3232C218.839 13.7733 218.579 13.2928 218.196 13.2501C217.813 13.2073 217.453 13.6185 217.392 14.1684C217.331 14.7183 217.591 15.1988 217.973 15.2415C218.356 15.2843 218.716 14.8731 218.777 14.3232Z" fill="#E6E6E6"/>
<path d="M219.631 20.8169C219.692 20.267 219.432 19.7865 219.049 19.7438C218.667 19.701 218.307 20.1122 218.246 20.6621C218.184 21.212 218.444 21.6925 218.827 21.7352C219.21 21.778 219.569 21.3668 219.631 20.8169Z" fill="#3F3D56"/>
<path d="M209.034 8.44075C209.095 7.89083 208.835 7.41037 208.452 7.36763C208.07 7.32488 207.71 7.73603 207.648 8.28595C207.587 8.83588 207.847 9.31633 208.23 9.35908C208.612 9.40182 208.972 8.99067 209.034 8.44075Z" fill="#E6E6E6"/>
<path d="M214.25 6.48128C214.311 5.93135 214.051 5.4509 213.668 5.40816C213.286 5.36541 212.926 5.77656 212.864 6.32648C212.803 6.8764 213.063 7.35686 213.446 7.3996C213.828 7.44235 214.188 7.0312 214.25 6.48128Z" fill="#FF6584"/>
<path d="M207.824 1.18733C207.885 0.637408 207.625 0.156956 207.242 0.11421C206.86 0.071464 206.5 0.482611 206.438 1.03254C206.377 1.58246 206.637 2.06291 207.02 2.10566C207.402 2.1484 207.762 1.73726 207.824 1.18733Z" fill="#3F3D56"/>
<path d="M91.3893 49.5038C91.3985 55.892 89.0387 62.0567 84.7661 66.8059V66.8094C84.1621 67.4811 83.5241 68.1214 82.8546 68.728C82.1697 69.3484 81.4515 69.9311 80.7034 70.4737C80.1814 70.8546 79.6453 71.2143 79.0952 71.5529C78.4427 71.9584 77.7715 72.3334 77.0814 72.6779C76.57 72.9353 76.0481 73.1752 75.5156 73.3973C72.3368 74.7332 68.9231 75.4203 65.475 75.4181C63.5276 75.4203 61.5862 75.2026 59.6877 74.7692C58.8097 74.5696 57.9431 74.3223 57.092 74.0286C56.764 73.9193 56.436 73.7994 56.1116 73.6724C54.1442 72.912 52.2785 71.911 50.557 70.6923C46.9182 68.1304 44.0005 64.6745 42.085 60.6577C40.1695 56.6409 39.3207 52.1984 39.6204 47.7583C39.92 43.3183 41.3581 39.0302 43.796 35.3072C46.234 31.5842 49.5896 28.5517 53.5396 26.502C57.4897 24.4523 61.901 23.4543 66.3487 23.6043C70.7963 23.7542 75.1304 25.047 78.9334 27.3582C82.7364 29.6693 85.8802 32.9209 88.0618 36.7997C90.2434 40.6784 91.3894 45.0537 91.3893 49.5038Z" fill="#F2F2F2"/>
<path d="M168.948 30.2404H124.159C123.785 30.2398 123.427 30.091 123.163 29.8265C122.899 29.562 122.75 29.2035 122.75 28.8297C122.75 28.4559 122.899 28.0974 123.163 27.8329C123.427 27.5684 123.785 27.4196 124.159 27.419H168.948C169.322 27.419 169.681 27.5676 169.946 27.8322C170.21 28.0967 170.359 28.4556 170.359 28.8297C170.359 29.2038 170.21 29.5626 169.946 29.8272C169.681 30.0918 169.322 30.2404 168.948 30.2404Z" fill="#6C63FF"/>
<path d="M168.948 49.2846H124.159C123.785 49.2841 123.427 49.1352 123.163 48.8707C122.899 48.6062 122.75 48.2477 122.75 47.8739C122.75 47.5002 122.899 47.1417 123.163 46.8772C123.427 46.6127 123.785 46.4638 124.159 46.4633H168.948C169.322 46.4638 169.68 46.6127 169.944 46.8772C170.208 47.1417 170.357 47.5002 170.357 47.8739C170.357 48.2477 170.208 48.6062 169.944 48.8707C169.68 49.1352 169.322 49.2841 168.948 49.2846Z" fill="#E6E6E6"/>
<path d="M168.948 68.3289H124.159C123.785 68.3283 123.427 68.1795 123.163 67.915C122.899 67.6505 122.75 67.292 122.75 66.9182C122.75 66.5444 122.899 66.1859 123.163 65.9214C123.427 65.6569 123.785 65.5081 124.159 65.5075H168.948C169.322 65.5075 169.681 65.6561 169.946 65.9207C170.21 66.1852 170.359 66.5441 170.359 66.9182C170.359 67.2923 170.21 67.6511 169.946 67.9157C169.681 68.1803 169.322 68.3289 168.948 68.3289Z" fill="#E6E6E6"/>
<path d="M56.9729 110.414C51.9165 103.688 48.994 96.1672 48.8982 87.5928C48.7353 87.1307 48.7624 86.6229 48.9734 86.1807C49.1845 85.7385 49.5623 85.3981 50.024 85.2342L67.2588 79.136C67.7209 78.9731 68.2287 79.0002 68.6709 79.2112C69.1131 79.4222 69.4535 79.8001 69.6174 80.2618L77.6921 103.083C77.855 103.545 77.8279 104.053 77.6169 104.495C77.4058 104.937 77.028 105.277 76.5663 105.441L59.3315 111.539C58.8694 111.702 58.3616 111.675 57.9194 111.464C57.4772 111.253 57.1368 110.875 56.9729 110.414Z" fill="#E6E6E6"/>
<path d="M55.8556 103.053C52.8145 99.9782 51.5128 94.494 50.6645 88.3817C50.5119 87.9489 50.5372 87.4733 50.7349 87.0592C50.9325 86.6451 51.2864 86.3263 51.7188 86.1728L66.5307 80.9319C66.9634 80.7793 67.4391 80.8046 67.8532 81.0023C68.2673 81.1999 68.5861 81.5538 68.7397 81.9862L75.925 102.294C76.0776 102.726 76.0522 103.202 75.8546 103.616C75.6569 104.03 75.303 104.349 74.8706 104.503L65.695 107.749C63.7673 108.429 61.6488 108.316 59.8042 107.436C57.9597 106.555 56.5396 104.979 55.8556 103.053Z" fill="white"/>
<path d="M68.9387 92.9259L57.4006 97.0444C57.3097 97.0768 57.2133 97.0911 57.1169 97.0863C57.0205 97.0814 56.926 97.0577 56.8387 97.0164C56.7515 96.975 56.6733 96.9169 56.6085 96.8453C56.5437 96.7737 56.4937 96.6901 56.4612 96.5992C56.4288 96.5083 56.4146 96.4119 56.4194 96.3155C56.4242 96.2191 56.4479 96.1246 56.4893 96.0373C56.5306 95.9501 56.5887 95.8719 56.6603 95.8071C56.7319 95.7423 56.8155 95.6923 56.9064 95.6598L68.4445 91.5413C68.6281 91.4758 68.8302 91.4859 69.0064 91.5693C69.1825 91.6528 69.3183 91.8029 69.3839 91.9865C69.4494 92.1701 69.4393 92.3722 69.3558 92.5484C69.2723 92.7246 69.1223 92.8603 68.9387 92.9259Z" fill="#6C63FF"/>
<path d="M58.5835 92.3418L56.0451 93.2479C55.9542 93.2804 55.8577 93.2947 55.7613 93.29C55.6648 93.2853 55.5702 93.2616 55.4829 93.2202C55.3956 93.1789 55.3173 93.1208 55.2524 93.0492C55.1876 92.9776 55.1375 92.8939 55.105 92.8029C55.0726 92.712 55.0583 92.6155 55.0632 92.519C55.068 92.4225 55.0918 92.328 55.1332 92.2407C55.1746 92.1534 55.2328 92.0752 55.3045 92.0104C55.3762 91.9457 55.4599 91.8957 55.5509 91.8633L58.0893 90.9572C58.1802 90.9247 58.2767 90.9103 58.3732 90.9151C58.4696 90.9198 58.5642 90.9435 58.6515 90.9848C58.7389 91.0262 58.8172 91.0843 58.882 91.1559C58.9468 91.2275 58.9969 91.3112 59.0294 91.4021C59.0619 91.4931 59.0761 91.5896 59.0712 91.6861C59.0664 91.7825 59.0426 91.8771 59.0012 91.9644C58.9598 92.0516 58.9016 92.1299 58.8299 92.1947C58.7582 92.2594 58.6745 92.3094 58.5835 92.3418Z" fill="#6C63FF"/>
<path d="M71.1108 99.0128L59.5728 103.131C59.3892 103.197 59.1873 103.186 59.0112 103.103C58.8352 103.019 58.6996 102.869 58.6341 102.686C58.5686 102.502 58.5786 102.3 58.662 102.124C58.7453 101.948 58.8951 101.812 59.0786 101.747L70.6166 97.6283C70.8002 97.563 71.0021 97.5732 71.1781 97.6567C71.3541 97.7403 71.4898 97.8902 71.5553 98.0737C71.6208 98.2572 71.6108 98.4592 71.5274 98.6353C71.4441 98.8114 71.2942 98.9472 71.1108 99.0128Z" fill="#6C63FF"/>
<path d="M70.0244 95.9693L58.4863 100.088C58.3027 100.153 58.1006 100.143 57.9244 100.06C57.7483 99.9763 57.6125 99.8263 57.5469 99.6427C57.4814 99.4591 57.4915 99.2569 57.575 99.0808C57.6585 98.9046 57.8085 98.7688 57.9921 98.7033L69.5302 94.5848C69.6211 94.5522 69.7175 94.5379 69.814 94.5426C69.9105 94.5474 70.0051 94.5711 70.0924 94.6124C70.1797 94.6537 70.258 94.7118 70.3229 94.7834C70.3877 94.855 70.4378 94.9387 70.4703 95.0297C70.5027 95.1207 70.5169 95.2171 70.5121 95.3136C70.5073 95.4101 70.4835 95.5047 70.4421 95.5919C70.4006 95.6792 70.3424 95.7574 70.2708 95.8222C70.1991 95.887 70.1154 95.937 70.0244 95.9693Z" fill="#6C63FF"/>
<path d="M59.5475 37.7797C59.9232 40.8112 62.0238 43.3107 65.0785 43.3107C66.5454 43.3107 67.9523 42.728 68.9895 41.6907C70.0268 40.6535 70.6095 39.2466 70.6095 37.7797C70.6095 34.7251 68.1201 32.5312 65.0785 32.2487C61.8512 31.9491 59.0651 33.8877 59.5475 37.7797Z" fill="#2F2E41"/>
<path d="M69.8933 75.0408C66.5065 75.6231 63.0381 75.5308 59.687 74.7693C61.2776 73.8911 66.1021 74.4307 69.8933 75.0408Z" fill="#2F2E41"/>
<path d="M48.3663 84.7696L51.0231 78.3489L53.1164 79.5118L51.8522 86.0433C51.9788 86.4571 51.9875 86.898 51.8773 87.3164C51.767 87.7349 51.5423 88.1143 51.2282 88.412C50.9142 88.7097 50.5233 88.9139 50.0996 89.0017C49.6758 89.0894 49.236 89.0572 48.8296 88.9087C48.4231 88.7602 48.0662 88.5013 47.7988 88.161C47.5315 87.8208 47.3643 87.4126 47.3162 86.9826C47.2681 86.5526 47.3408 86.1176 47.5263 85.7267C47.7118 85.3357 48.0027 85.0043 48.3663 84.7696Z" fill="#FFB6CC"/>
<path d="M75.8501 67.3948V67.3984C75.7549 69.6343 75.6244 71.7609 75.5151 73.3973C72.3363 74.7332 68.9226 75.4203 65.4745 75.4181C63.5271 75.4203 61.5857 75.2026 59.6872 74.7692C58.8092 74.5696 57.9427 74.3223 57.0915 74.0286C57.21 73.9521 57.3381 73.8917 57.4724 73.8487C58.742 73.4185 57.4865 73.027 57.4971 72.6179C57.5359 71.1226 57.9485 69.3275 58.481 67.6065L56.1111 73.6724L54.8767 76.8253C54.8767 76.8253 54.919 79.5479 54.1361 78.7156C53.3497 77.8833 53.4061 80.5777 53.4061 80.5777C53.1617 80.7519 52.9513 80.9694 52.7854 81.2196C52.7156 81.3322 52.6893 81.4663 52.7113 81.5969V81.6005C52.7468 81.703 52.8165 81.7902 52.9088 81.8473C53.4413 82.207 52.676 83.1593 52.3375 83.5366C52.2458 83.6389 52.1858 83.6989 52.1858 83.6989L48.9307 83.4661V83.4026C48.9448 83.0182 49.033 80.9939 49.5373 80.5107C50.091 79.9782 49.8194 79.1353 49.8194 79.1353C49.8194 79.1353 51.2654 77.8551 50.2955 76.8147C49.9076 76.395 50.0804 73.9087 50.5565 70.6923C51.5969 63.5966 54.0903 52.9459 55.1694 53.0976C55.3918 52.0173 55.9083 51.0194 56.662 50.2141C57.4156 49.4088 58.3771 48.8274 59.4403 48.534L62.9564 47.5677L63.5842 45.0884H68.5357L69.3962 46.7177L73.004 48.3471L73.0499 48.3682L73.1627 48.4176L73.2051 48.5516C73.2051 48.5516 73.2015 48.5551 73.2051 48.5551L75.2118 54.8574C76.1146 55.8942 76.0793 61.9531 75.8501 67.3948Z" fill="#6C63FF"/>
<path d="M84.2816 80.0942L80.9287 74.008L83.1446 73.1003L87.4542 78.1684C87.8564 78.3281 88.206 78.5968 88.4639 78.9444C88.7217 79.2919 88.8775 79.7045 88.9137 80.1357C88.9499 80.5669 88.8651 80.9996 88.6688 81.3853C88.4726 81.7709 88.1726 82.0942 87.8027 82.3188C87.4328 82.5433 87.0076 82.6602 86.5749 82.6564C86.1422 82.6525 85.7191 82.528 85.3533 82.2969C84.9875 82.0657 84.6934 81.7371 84.504 81.348C84.3147 80.9589 84.2377 80.5247 84.2816 80.0942Z" fill="#FFB6CC"/>
<path d="M73.0046 48.2985C73.6011 49.3701 79.0555 52.1262 78.1102 54.8932C78.1102 54.8932 83.2344 70.9246 83.9007 70.82C84.567 70.7154 85.2174 72.3713 85.2174 72.3713C85.2174 72.3713 85.076 73.452 85.4917 73.0029C85.9073 72.5538 85.8078 73.7311 85.8078 73.7311C85.8078 73.7311 85.6086 74.7702 86.1363 74.4877C86.664 74.2052 85.9702 76.1938 85.9702 76.1938L82.7989 77.687L82.1963 76.7901C82.1963 76.7901 80.9085 76.5448 81.5145 76.3506C82.1204 76.1563 80.9447 75.5025 80.9447 75.5025C80.9447 75.5025 79.7146 74.6665 79.8861 73.2821C80.0575 71.8976 76.6942 69.176 76.6942 69.176C74.3821 64.611 73.1172 59.9242 73.1216 55.0896L73.0046 48.2985Z" fill="#6C63FF"/>
<path d="M65.6896 43.6391C68.3983 43.6391 70.5942 41.4432 70.5942 38.7345C70.5942 36.0257 68.3983 33.8298 65.6896 33.8298C62.9808 33.8298 60.7849 36.0257 60.7849 38.7345C60.7849 41.4432 62.9808 43.6391 65.6896 43.6391Z" fill="#9F616A"/>
<path d="M60.6115 39.2688C60.7668 40.3346 61.6751 41.8216 61.4624 41.8216C61.2497 41.8216 59.7372 37.428 61.2497 37.1415C62.3468 36.9337 62.592 37.116 63.6174 36.6714L63.4727 36.8075C64.1513 37.3011 65.0958 36.9969 65.8702 36.6756C66.6466 36.3566 67.589 36.0524 68.2698 36.5438C68.6974 36.8522 68.8782 37.3883 69.1441 37.8435C69.41 38.3009 69.9014 38.7328 70.4077 38.5924C70.605 38.5161 70.7731 38.3793 70.8877 38.2016C71.0024 38.0238 71.0578 37.8143 71.0459 37.6032C71.0438 37.182 70.4953 36.7813 70.68 36.4033C71.2274 35.2834 70.7351 34.5201 69.5419 33.9931C69.1079 33.9272 68.674 33.8598 68.24 33.791C68.4674 33.476 68.7431 33.1989 69.0569 32.9699C68.9243 32.63 68.695 32.3364 68.3974 32.1253C68.0297 31.9544 67.6199 31.8952 67.2189 31.9552C66.3212 32.002 65.4241 32.0488 64.5278 32.0956C63.8603 32.0836 63.1978 32.2127 62.5835 32.4742C61.8432 32.855 61.3582 33.5974 61.005 34.3526C60.2137 36.0502 60.3392 37.416 60.6115 39.2688Z" fill="#2F2E41"/>
<path d="M183.302 36.0519H109.542C109.461 36.0519 109.383 36.0196 109.325 35.9622C109.268 35.9048 109.236 35.8269 109.236 35.7456C109.236 35.6644 109.268 35.5865 109.325 35.5291C109.383 35.4717 109.461 35.4394 109.542 35.4394H183.302C183.383 35.4394 183.461 35.4717 183.518 35.5291C183.576 35.5865 183.608 35.6644 183.608 35.7456C183.608 35.8269 183.576 35.9048 183.518 35.9622C183.461 36.0196 183.383 36.0519 183.302 36.0519Z" fill="#E6E6E6"/>
<path d="M183.302 55.0393H109.542C109.461 55.0393 109.383 55.007 109.325 54.9496C109.268 54.8921 109.236 54.8142 109.236 54.733C109.236 54.6518 109.268 54.5739 109.325 54.5165C109.383 54.459 109.461 54.4268 109.542 54.4268H183.302C183.383 54.4268 183.461 54.459 183.518 54.5165C183.576 54.5739 183.608 54.6518 183.608 54.733C183.608 54.8142 183.576 54.8921 183.518 54.9496C183.461 55.007 183.383 55.0393 183.302 55.0393Z" fill="#E6E6E6"/>
<path d="M183.302 74.0264H109.542C109.461 74.0264 109.383 73.9942 109.325 73.9367C109.268 73.8793 109.236 73.8014 109.236 73.7202C109.236 73.639 109.268 73.5611 109.325 73.5036C109.383 73.4462 109.461 73.4139 109.542 73.4139H183.302C183.383 73.4139 183.461 73.4462 183.518 73.5036C183.576 73.5611 183.608 73.639 183.608 73.7202C183.608 73.8014 183.576 73.8793 183.518 73.9367C183.461 73.9942 183.383 74.0264 183.302 74.0264Z" fill="#E6E6E6"/>
<path d="M194.28 72.8124C191.58 72.8124 188.968 71.848 186.916 70.0931C186.232 69.5071 185.502 68.4883 184.748 67.0653C184.267 66.1486 183.998 65.1358 183.96 64.1012C183.922 63.0667 184.116 62.0368 184.529 61.0873C184.131 61.4919 183.691 61.8527 183.216 62.1636L182.977 62.3232L182.963 62.0355C182.954 61.8484 182.949 61.662 182.949 61.4813C182.949 60.4168 183.754 59.3365 183.383 58.3525C181.818 54.2052 176.854 50.0836 184.048 43.6651C184.714 43.0713 183.825 41.8842 183.825 40.9858C183.825 32.1819 196.268 16.9508 199.794 25.0194C204.143 34.97 211.636 33.9057 214.956 35.961L215.004 36.1064L214.862 36.1638C214.136 36.4691 213.37 36.6726 212.588 36.7685C213.422 36.9386 214.273 37.0099 215.124 36.981L215.256 36.9764L215.288 37.1045C215.604 38.374 215.764 39.6775 215.764 40.9858L215.763 41.1273C215.76 42.121 215.967 43.1042 216.369 44.0128C216.772 44.9214 217.361 45.7349 218.099 46.4004C219.265 47.4633 220.197 48.7574 220.835 50.2003C221.473 51.6432 221.803 53.2031 221.804 54.7807C221.804 56.6471 220.536 59.0971 219.472 60.8237C219.202 61.2635 218.836 61.6365 218.402 61.9148C217.967 62.1931 217.476 62.3694 216.963 62.4304C216.478 62.4916 215.985 62.4454 215.52 62.2951C215.054 62.1447 214.628 61.8939 214.27 61.5604C214.774 62.5732 215.43 63.5025 216.216 64.3158L216.361 64.4654L216.181 64.5704C214.449 65.5807 212.479 66.1126 210.473 66.1118L210.356 66.1115C208.886 66.0964 207.427 66.3748 206.065 66.9305C204.704 67.4862 203.467 68.3081 202.427 69.3479C201.368 70.4387 200.102 71.307 198.703 71.9019C197.304 72.4969 195.8 72.8064 194.28 72.8124Z" fill="#E6E6E6"/>
<path d="M190.382 90.7568C190.333 90.7567 190.286 90.739 190.249 90.7068C190.212 90.6747 190.188 90.6302 190.181 90.5817C189.648 85.8299 189.616 81.0352 190.086 76.2767C190.789 68.7701 193.048 57.9578 199.814 49.0779C199.83 49.0567 199.85 49.0388 199.873 49.0253C199.897 49.0119 199.922 49.0031 199.949 48.9995C199.975 48.9959 200.002 48.9976 200.028 49.0044C200.054 49.0113 200.078 49.0232 200.099 49.0394C200.121 49.0556 200.139 49.0759 200.152 49.099C200.166 49.1221 200.174 49.1477 200.178 49.1742C200.181 49.2007 200.18 49.2277 200.173 49.2535C200.166 49.2794 200.154 49.3037 200.138 49.325C193.43 58.1282 191.19 68.8611 190.491 76.3147C190.024 81.0414 190.055 85.8041 190.584 90.5243C190.588 90.5532 190.586 90.5826 190.578 90.6106C190.569 90.6386 190.555 90.6645 190.536 90.6866C190.517 90.7086 190.493 90.7263 190.467 90.7384C190.44 90.7505 190.411 90.7568 190.382 90.7568Z" fill="#3F3D56"/>
<path d="M195.903 61.6035C195.86 61.6035 195.818 61.5899 195.784 61.5646C195.749 61.5394 195.723 61.5037 195.709 61.4628C195.696 61.4218 195.696 61.3777 195.709 61.3368C195.723 61.2959 195.749 61.2602 195.783 61.2349C197.711 59.9298 199.794 58.8696 201.984 58.0785C205.405 56.8262 210.607 55.6908 215.962 57.3952C215.987 57.4033 216.011 57.4163 216.031 57.4336C216.052 57.4509 216.069 57.472 216.081 57.4957C216.093 57.5195 216.101 57.5455 216.103 57.5721C216.105 57.5988 216.102 57.6256 216.094 57.6511C216.086 57.6766 216.073 57.7003 216.056 57.7207C216.038 57.7412 216.017 57.758 215.994 57.7703C215.97 57.7826 215.944 57.7901 215.917 57.7924C215.891 57.7946 215.864 57.7916 215.838 57.7835C210.593 56.1141 205.485 57.2307 202.124 58.4613C199.97 59.2388 197.92 60.2812 196.023 61.5645C195.988 61.5899 195.946 61.6035 195.903 61.6035Z" fill="#3F3D56"/>
<path d="M186.577 38.3746C186.574 38.3316 186.584 38.2888 186.607 38.2522C186.63 38.2157 186.663 38.1872 186.703 38.171C186.743 38.1548 186.787 38.1516 186.829 38.1619C186.871 38.1722 186.908 38.1955 186.936 38.2284C188.376 40.0573 189.584 42.0583 190.531 44.1853C192.026 47.5071 193.533 52.6137 192.219 58.0778C192.213 58.1039 192.201 58.1285 192.186 58.1502C192.17 58.1719 192.15 58.1903 192.127 58.2043C192.104 58.2184 192.079 58.2278 192.053 58.232C192.026 58.2362 191.999 58.2351 191.973 58.2288C191.947 58.2226 191.922 58.2112 191.901 58.1954C191.879 58.1796 191.861 58.1597 191.847 58.1369C191.833 58.114 191.823 58.0886 191.819 58.0621C191.815 58.0356 191.816 58.0085 191.823 57.9825C193.11 52.6304 191.628 47.6164 190.159 44.3526C189.228 42.2598 188.041 40.2908 186.624 38.4911C186.597 38.4582 186.58 38.4174 186.577 38.3746Z" fill="#3F3D56"/>
<path d="M19.9333 68.7357C18.8934 67.6959 17.6564 66.874 16.2949 66.3183C14.9334 65.7626 13.4746 65.4842 12.0041 65.4993L11.8867 65.4997C9.88117 65.5004 7.91145 64.9685 6.17898 63.9583L5.9987 63.8532L6.1439 63.7036C6.93 62.8903 7.58639 61.961 8.09008 60.9482C7.73235 61.2817 7.30568 61.5326 6.84028 61.6829C6.37487 61.8333 5.8821 61.8795 5.39686 61.8183C4.88456 61.7572 4.39275 61.5809 3.9583 61.3026C3.52385 61.0244 3.15805 60.6513 2.88835 60.2115C1.82417 58.4849 0.555664 56.0349 0.555664 54.1685C0.55732 52.5909 0.887636 51.031 1.52556 49.5881C2.16349 48.1453 3.09503 46.8511 4.2608 45.7882C4.99884 45.1228 5.58834 44.3092 5.99087 43.4006C6.3934 42.492 6.59993 41.5088 6.59698 40.5151L6.59639 40.3737C6.59619 39.0653 6.75608 37.7619 7.07248 36.4924L7.1046 36.3642L7.2365 36.3688C8.08705 36.3977 8.93806 36.3264 9.77194 36.1564C8.98976 36.0604 8.22457 35.8569 7.49808 35.5516L7.35619 35.4942L7.40434 35.3488C10.7238 33.2935 18.2168 34.3578 22.566 24.4072C26.0926 16.3386 38.5356 31.5697 38.5356 40.3737C38.5356 41.272 37.6465 42.4591 38.312 43.0529C45.5066 49.4714 40.5424 53.593 38.9773 57.7403C38.606 58.7243 39.4112 59.8046 39.4112 60.8692C39.4112 61.0498 39.4066 61.2363 39.3975 61.4234L39.3836 61.711L39.1437 61.5514C38.6692 61.2405 38.2293 60.8797 37.8316 60.4751C38.2442 61.4246 38.4386 62.4545 38.4006 63.489C38.3626 64.5236 38.0931 65.5364 37.612 66.4531C36.858 67.8761 36.1286 68.8949 35.444 69.4809C33.2509 71.3576 30.4238 72.3257 27.5407 72.1872C24.6576 72.0487 21.9363 70.814 19.9333 68.7357Z" fill="#E6E6E6"/>
<path d="M31.9785 90.1446C32.0275 90.1445 32.0749 90.1268 32.1119 90.0946C32.1489 90.0625 32.1731 90.0181 32.18 89.9695C32.7129 85.2177 32.7447 80.423 32.2751 75.6645C31.5717 68.1579 29.313 57.3457 22.5468 48.4658C22.5306 48.4445 22.5103 48.4266 22.4872 48.4131C22.464 48.3997 22.4385 48.3909 22.412 48.3873C22.3854 48.3837 22.3585 48.3854 22.3326 48.3923C22.3067 48.3991 22.2825 48.411 22.2612 48.4272C22.2399 48.4434 22.222 48.4637 22.2085 48.4868C22.1951 48.5099 22.1863 48.5355 22.1827 48.562C22.1792 48.5885 22.1808 48.6155 22.1877 48.6414C22.1945 48.6672 22.2064 48.6915 22.2226 48.7128C28.9304 57.516 31.1709 68.2489 31.8693 75.7025C32.3364 80.4292 32.3053 85.1919 31.7765 89.9121C31.7724 89.941 31.7746 89.9704 31.7829 89.9984C31.7912 90.0265 31.8053 90.0523 31.8245 90.0744C31.8436 90.0964 31.8673 90.1141 31.8939 90.1262C31.9205 90.1383 31.9493 90.1446 31.9785 90.1446Z" fill="#3F3D56"/>
<path d="M26.4567 60.9913C26.4998 60.9913 26.5417 60.9777 26.5765 60.9525C26.6114 60.9272 26.6373 60.8915 26.6506 60.8506C26.664 60.8096 26.664 60.7656 26.6507 60.7246C26.6374 60.6837 26.6115 60.648 26.5767 60.6227C24.6487 59.3177 22.5659 58.2574 20.3763 57.4664C16.9555 56.214 11.7536 55.0786 6.39831 56.783C6.37281 56.7911 6.34916 56.8042 6.32871 56.8214C6.30826 56.8387 6.29141 56.8598 6.27912 56.8836C6.26683 56.9073 6.25934 56.9333 6.25708 56.9599C6.25482 56.9866 6.25783 57.0134 6.26595 57.0389C6.27406 57.0644 6.28711 57.0881 6.30437 57.1085C6.32162 57.129 6.34274 57.1458 6.36651 57.1581C6.39027 57.1704 6.41623 57.1779 6.44289 57.1802C6.46955 57.1824 6.4964 57.1794 6.52189 57.1713C11.7674 55.502 16.875 56.6186 20.2362 57.8491C22.3906 58.6266 24.44 59.669 26.3371 60.9524C26.3718 60.9777 26.4137 60.9913 26.4567 60.9913Z" fill="#3F3D56"/>
<path d="M35.7831 37.7623C35.7863 37.7194 35.7757 37.6766 35.753 37.64C35.7303 37.6034 35.6966 37.575 35.6568 37.5587C35.6169 37.5425 35.5729 37.5393 35.5311 37.5496C35.4893 37.5599 35.4519 37.5832 35.4241 37.6161C33.9836 39.4451 32.7762 41.4461 31.8295 43.5731C30.334 46.8948 28.827 52.0015 30.1413 57.4656C30.1475 57.4916 30.1587 57.5163 30.1745 57.538C30.1902 57.5597 30.21 57.5781 30.2329 57.5921C30.2557 57.6061 30.2811 57.6155 30.3076 57.6197C30.334 57.6239 30.3611 57.6229 30.3872 57.6166C30.4132 57.6103 30.4378 57.599 30.4595 57.5832C30.4811 57.5674 30.4995 57.5475 30.5134 57.5246C30.5274 57.5017 30.5367 57.4763 30.5408 57.4498C30.545 57.4234 30.5438 57.3963 30.5375 57.3703C29.2502 52.0181 30.7317 47.0042 32.2012 43.7404C33.1318 41.6476 34.3191 39.6786 35.7357 37.8788C35.7635 37.846 35.7801 37.8052 35.7831 37.7623Z" fill="#3F3D56"/>
</g>
<defs>
<clipPath id="clip0_626_12668">
<rect width="221.249" height="111.534" fill="white" transform="translate(0.555664 0.111145)"/>
</clipPath>
</defs>
</svg>
