<svg width="104" height="95" viewBox="0 0 104 95" fill="none" xmlns="http://www.w3.org/2000/svg">
<g clip-path="url(#clip0_626_12716)">
<path d="M89.3882 9.16791L3.34229 34.2381L5.62139 42.0605L91.6673 16.9903L89.3882 9.16791Z" fill="#3F3D56"/>
<path d="M13.6227 70.1694L0.940243 26.6407C0.846218 26.3179 0.884248 25.9711 1.04596 25.6764C1.20767 25.3817 1.47982 25.1633 1.80254 25.0693L85.7625 0.606844C86.0852 0.513136 86.4319 0.551295 86.7265 0.71295C87.0211 0.874604 87.2395 1.14655 87.3338 1.46908L98.5695 40.0324L98.2219 40.1337L86.9862 1.57039C86.9186 1.34011 86.7626 1.14598 86.5522 1.03053C86.3418 0.915075 86.0943 0.887721 85.8637 0.954459L1.90384 25.4169C1.67332 25.4841 1.47893 25.6401 1.36342 25.8506C1.24791 26.0611 1.22075 26.3088 1.2879 26.5393L13.9704 70.0681L13.6227 70.1694Z" fill="#3F3D56"/>
<path d="M79.9864 40.2112C79.7316 40.2109 79.4839 40.1281 79.2801 39.9753C79.0763 39.8224 78.9275 39.6077 78.856 39.3632L76.7288 32.0624C76.6419 31.7627 76.6773 31.4408 76.8274 31.1673C76.9775 30.8938 77.23 30.691 77.5294 30.6033L84.8303 28.4762C85.13 28.3892 85.4519 28.4247 85.7255 28.5748C85.999 28.725 86.2018 28.9775 86.2894 29.277L88.4166 36.5778C88.5035 36.8775 88.468 37.1994 88.3179 37.4729C88.1678 37.7464 87.9154 37.9493 87.6159 38.0369L80.315 40.164C80.2083 40.1953 80.0976 40.2111 79.9864 40.2112Z" fill="#6C63FF"/>
<path d="M13.4266 26.7749C13.4047 26.6999 13.3787 26.6261 13.3487 26.554C13.1446 26.0585 12.7646 25.656 12.2817 25.4237C11.7988 25.1914 11.247 25.1458 10.7326 25.2956C10.2181 25.4454 9.77707 25.78 9.49432 26.2352C9.21157 26.6904 9.10701 27.234 9.20073 27.7616C9.2139 27.8386 9.23143 27.9148 9.25324 27.9898C9.38546 28.4411 9.66031 28.8374 10.0366 29.1194C10.413 29.4014 10.8705 29.5539 11.3408 29.5541C11.5461 29.5546 11.7504 29.5253 11.9474 29.4672C12.5001 29.3057 12.9663 28.9315 13.2436 28.4268C13.5209 27.9221 13.5867 27.328 13.4266 26.7749ZM11.846 29.1196C11.385 29.2534 10.8898 29.1989 10.4689 28.9681C10.048 28.7373 9.73587 28.349 9.60086 27.8884C9.57967 27.8133 9.56272 27.7372 9.55012 27.6602C9.48221 27.2255 9.57495 26.781 9.81102 26.4097C10.0471 26.0384 10.4103 25.7658 10.8327 25.6429C11.2552 25.52 11.708 25.5552 12.1064 25.7418C12.5048 25.9285 12.8215 26.2539 12.9975 26.6572C13.0302 26.728 13.0575 26.8012 13.079 26.8763C13.2126 27.3372 13.1578 27.8324 12.9266 28.253C12.6954 28.6736 12.3068 28.9853 11.846 29.1196Z" fill="#6C63FF"/>
<path d="M8.09738 28.3266C7.98151 27.9286 7.99264 27.5045 8.12922 27.1132C8.26579 26.7219 8.52102 26.3829 8.85933 26.1435C8.54237 26.1281 8.2263 26.1886 7.93747 26.32C7.64863 26.4515 7.39538 26.65 7.19882 26.8992C7.00226 27.1483 6.86807 27.4408 6.80744 27.7523C6.74681 28.0638 6.76149 28.3853 6.85026 28.6899C6.93903 28.9946 7.09931 29.2736 7.31776 29.5038C7.53622 29.734 7.80651 29.9087 8.10613 30.0132C8.40574 30.1178 8.726 30.1492 9.04024 30.105C9.35447 30.0607 9.65358 29.942 9.91264 29.7587C9.49869 29.7385 9.10134 29.5897 8.77596 29.333C8.45059 29.0763 8.21337 28.7245 8.09738 28.3266Z" fill="#6C63FF"/>
<path d="M64.3816 37.2998C64.3431 37.1613 64.2776 37.0317 64.1889 36.9184C64.1003 36.8052 63.9902 36.7106 63.8649 36.6399C63.7396 36.5693 63.6016 36.5241 63.4588 36.5068C63.3161 36.4895 63.1713 36.5006 63.0328 36.5394L51.0123 39.9016L49.7178 40.2637H57.8473L59.1418 39.9016L63.623 38.6487C63.9023 38.5702 64.1391 38.3841 64.2814 38.1312C64.4236 37.8783 64.4597 37.5793 64.3816 37.2998Z" fill="#CCCCCC"/>
<path d="M55.8772 34.7885C55.7989 34.5091 55.6128 34.2722 55.3599 34.1299C55.1069 33.9876 54.8078 33.9517 54.5283 34.0299L36.4914 39.0742C36.2394 39.1456 36.0211 39.3047 35.876 39.5228C35.731 39.7409 35.6686 40.0037 35.7002 40.2637H40.3696L41.6659 39.9016L55.1186 36.1392C55.3982 36.0605 55.6351 35.874 55.7773 35.6208C55.9196 35.3676 55.9555 35.0682 55.8772 34.7885Z" fill="#CCCCCC"/>
<path d="M102.312 39.9012H14.8612C14.5251 39.9016 14.203 40.0352 13.9654 40.2728C13.7278 40.5104 13.5941 40.8326 13.5938 41.1686V92.9512C13.5941 93.2872 13.7278 93.6094 13.9654 93.847C14.203 94.0846 14.5251 94.2182 14.8612 94.2186H102.312C102.648 94.2182 102.97 94.0846 103.208 93.847C103.446 93.6094 103.579 93.2872 103.58 92.9512V41.1686C103.579 40.8326 103.446 40.5104 103.208 40.2728C102.97 40.0352 102.648 39.9016 102.312 39.9012ZM103.218 92.9512C103.217 93.1913 103.122 93.4215 102.952 93.5912C102.783 93.761 102.552 93.8564 102.312 93.8565H14.8612C14.6211 93.8564 14.3909 93.761 14.2211 93.5912C14.0514 93.4215 13.956 93.1913 13.9559 92.9512V41.1686C13.956 40.9285 14.0514 40.6983 14.2211 40.5286C14.3909 40.3588 14.6211 40.2634 14.8612 40.2633H102.312C102.552 40.2634 102.783 40.3588 102.952 40.5286C103.122 40.6983 103.217 40.9285 103.218 41.1686V92.9512Z" fill="#3F3D56"/>
<path d="M23.37 46.9628C22.9402 46.9628 22.5202 46.8354 22.1629 46.5967C21.8056 46.3579 21.5271 46.0186 21.3627 45.6216C21.1982 45.2246 21.1552 44.7877 21.239 44.3663C21.3228 43.9448 21.5298 43.5577 21.8336 43.2538C22.1375 42.9499 22.5246 42.743 22.9461 42.6592C23.3676 42.5753 23.8044 42.6184 24.2014 42.7828C24.5984 42.9473 24.9378 43.2257 25.1765 43.583C25.4152 43.9403 25.5427 44.3604 25.5427 44.7901C25.542 45.3662 25.3129 45.9184 24.9056 46.3257C24.4982 46.733 23.946 46.9622 23.37 46.9628ZM23.37 42.9795C23.0119 42.9795 22.6618 43.0857 22.3641 43.2847C22.0663 43.4836 21.8342 43.7664 21.6972 44.0973C21.5602 44.4281 21.5243 44.7921 21.5942 45.1434C21.664 45.4946 21.8365 45.8172 22.0897 46.0704C22.3429 46.3236 22.6655 46.4961 23.0167 46.5659C23.368 46.6358 23.732 46.5999 24.0628 46.4629C24.3937 46.3258 24.6765 46.0938 24.8754 45.796C25.0744 45.4983 25.1805 45.1482 25.1805 44.7901C25.18 44.3101 24.9891 43.8499 24.6496 43.5105C24.3102 43.171 23.85 42.9801 23.37 42.9795Z" fill="#6C63FF"/>
<path d="M19.9931 44.7902C19.9931 44.3757 20.1225 43.9716 20.363 43.6341C20.6036 43.2967 20.9435 43.0426 21.3353 42.9074C21.0353 42.8039 20.7149 42.7736 20.4008 42.819C20.0867 42.8644 19.7881 42.9842 19.5297 43.1684C19.2713 43.3526 19.0606 43.5959 18.9153 43.878C18.7699 44.1601 18.6941 44.4728 18.6941 44.7902C18.6941 45.1075 18.7699 45.4202 18.9153 45.7023C19.0606 45.9844 19.2713 46.2277 19.5297 46.4119C19.7881 46.5961 20.0867 46.7159 20.4008 46.7613C20.7149 46.8067 21.0353 46.7764 21.3353 46.6729C20.9435 46.5377 20.6036 46.2837 20.363 45.9462C20.1225 45.6087 19.9931 45.2046 19.9931 44.7902Z" fill="#6C63FF"/>
<path d="M32.1776 70.4602C31.7456 70.4597 31.3314 70.2879 31.0259 69.9824C30.7204 69.6769 30.5486 69.2627 30.5481 68.8307V63.9421C30.5481 63.51 30.7198 63.0955 31.0254 62.7899C31.331 62.4843 31.7454 62.3126 32.1776 62.3126C32.6098 62.3126 33.0243 62.4843 33.3299 62.7899C33.6355 63.0955 33.8071 63.51 33.8071 63.9421V68.8307C33.8066 69.2627 33.6348 69.6769 33.3293 69.9824C33.0238 70.2879 32.6096 70.4597 32.1776 70.4602Z" fill="#6C63FF"/>
<path d="M36.5226 70.4602C36.0906 70.4597 35.6764 70.2879 35.3709 69.9824C35.0654 69.6769 34.8936 69.2627 34.8931 68.8307V63.9421C34.8931 63.51 35.0647 63.0955 35.3703 62.7899C35.6759 62.4843 36.0904 62.3126 36.5226 62.3126C36.9548 62.3126 37.3692 62.4843 37.6748 62.7899C37.9804 63.0955 38.1521 63.51 38.1521 63.9421V68.8307C38.1516 69.2627 37.9798 69.6769 37.6743 69.9824C37.3688 70.2879 36.9546 70.4597 36.5226 70.4602Z" fill="#6C63FF"/>
<path d="M40.8683 70.4602C40.4363 70.4597 40.0221 70.2879 39.7166 69.9824C39.4111 69.6769 39.2393 69.2627 39.2388 68.8307V63.9421C39.2388 63.51 39.4105 63.0955 39.716 62.7899C40.0216 62.4843 40.4361 62.3126 40.8683 62.3126C41.3005 62.3126 41.7149 62.4843 42.0205 62.7899C42.3261 63.0955 42.4978 63.51 42.4978 63.9421V68.8307C42.4973 69.2627 42.3255 69.6769 42.02 69.9824C41.7145 70.2879 41.3003 70.4597 40.8683 70.4602Z" fill="#6C63FF"/>
<path d="M47.5673 70.4602C47.1352 70.4597 46.7211 70.2879 46.4156 69.9824C46.1101 69.6769 45.9382 69.2627 45.9377 68.8307V63.9421C45.9377 63.51 46.1094 63.0955 46.415 62.7899C46.7206 62.4843 47.1351 62.3126 47.5673 62.3126C47.9994 62.3126 48.4139 62.4843 48.7195 62.7899C49.0251 63.0955 49.1968 63.51 49.1968 63.9421V68.8307C49.1963 69.2627 49.0245 69.6769 48.719 69.9824C48.4135 70.2879 47.9993 70.4597 47.5673 70.4602Z" fill="#6C63FF"/>
<path d="M51.9127 70.4602C51.4807 70.4597 51.0665 70.2879 50.761 69.9824C50.4555 69.6769 50.2837 69.2627 50.2832 68.8307V63.9421C50.2832 63.51 50.4549 63.0955 50.7605 62.7899C51.0661 62.4843 51.4805 62.3126 51.9127 62.3126C52.3449 62.3126 52.7594 62.4843 53.065 62.7899C53.3706 63.0955 53.5422 63.51 53.5422 63.9421V68.8307C53.5418 69.2627 53.3699 69.6769 53.0644 69.9824C52.7589 70.2879 52.3447 70.4597 51.9127 70.4602Z" fill="#6C63FF"/>
<path d="M56.2582 70.4602C55.8262 70.4597 55.412 70.2879 55.1065 69.9824C54.801 69.6769 54.6292 69.2627 54.6287 68.8307V63.9421C54.6287 63.51 54.8003 63.0955 55.1059 62.7899C55.4115 62.4843 55.826 62.3126 56.2582 62.3126C56.6904 62.3126 57.1048 62.4843 57.4104 62.7899C57.716 63.0955 57.8877 63.51 57.8877 63.9421V68.8307C57.8872 69.2627 57.7154 69.6769 57.4099 69.9824C57.1044 70.2879 56.6902 70.4597 56.2582 70.4602Z" fill="#6C63FF"/>
<path d="M62.9572 70.4602C62.5251 70.4597 62.111 70.2879 61.8055 69.9824C61.5 69.6769 61.3281 69.2627 61.3276 68.8307V63.9421C61.3276 63.51 61.4993 63.0955 61.8049 62.7899C62.1105 62.4843 62.525 62.3126 62.9572 62.3126C63.3893 62.3126 63.8038 62.4843 64.1094 62.7899C64.415 63.0955 64.5867 63.51 64.5867 63.9421V68.8307C64.5862 69.2627 64.4144 69.6769 64.1089 69.9824C63.8034 70.2879 63.3892 70.4597 62.9572 70.4602Z" fill="#6C63FF"/>
<path d="M67.3029 70.4602C66.8708 70.4597 66.4567 70.2879 66.1512 69.9824C65.8457 69.6769 65.6738 69.2627 65.6733 68.8307V63.9421C65.6733 63.51 65.845 63.0955 66.1506 62.7899C66.4562 62.4843 66.8707 62.3126 67.3029 62.3126C67.735 62.3126 68.1495 62.4843 68.4551 62.7899C68.7607 63.0955 68.9324 63.51 68.9324 63.9421V68.8307C68.9319 69.2627 68.7601 69.6769 68.4546 69.9824C68.1491 70.2879 67.7349 70.4597 67.3029 70.4602Z" fill="#6C63FF"/>
<path d="M71.6481 70.4602C71.2161 70.4597 70.8019 70.2879 70.4964 69.9824C70.1909 69.6769 70.019 69.2627 70.0186 68.8307V63.9421C70.0186 63.51 70.1902 63.0955 70.4958 62.7899C70.8014 62.4843 71.2159 62.3126 71.6481 62.3126C72.0803 62.3126 72.4947 62.4843 72.8003 62.7899C73.1059 63.0955 73.2776 63.51 73.2776 63.9421V68.8307C73.2771 69.2627 73.1053 69.6769 72.7998 69.9824C72.4943 70.2879 72.0801 70.4597 71.6481 70.4602Z" fill="#6C63FF"/>
<path d="M78.3471 70.4602C77.915 70.4597 77.5008 70.2879 77.1954 69.9824C76.8899 69.6769 76.718 69.2627 76.7175 68.8307V63.9421C76.7175 63.51 76.8892 63.0955 77.1948 62.7899C77.5004 62.4843 77.9149 62.3126 78.3471 62.3126C78.7792 62.3126 79.1937 62.4843 79.4993 62.7899C79.8049 63.0955 79.9766 63.51 79.9766 63.9421V68.8307C79.9761 69.2627 79.8042 69.6769 79.4988 69.9824C79.1933 70.2879 78.7791 70.4597 78.3471 70.4602Z" fill="#6C63FF"/>
<path d="M82.6925 70.4602C82.2605 70.4597 81.8463 70.2879 81.5408 69.9824C81.2353 69.6769 81.0635 69.2627 81.063 68.8307V63.9421C81.063 63.51 81.2347 63.0955 81.5403 62.7899C81.8459 62.4843 82.2603 62.3126 82.6925 62.3126C83.1247 62.3126 83.5392 62.4843 83.8448 62.7899C84.1504 63.0955 84.322 63.51 84.322 63.9421V68.8307C84.3215 69.2627 84.1497 69.6769 83.8442 69.9824C83.5387 70.2879 83.1245 70.4597 82.6925 70.4602Z" fill="#6C63FF"/>
<path d="M87.038 70.4602C86.6059 70.4597 86.1918 70.2879 85.8863 69.9824C85.5808 69.6769 85.4089 69.2627 85.4084 68.8307V63.9421C85.4084 63.51 85.5801 63.0955 85.8857 62.7899C86.1913 62.4843 86.6058 62.3126 87.038 62.3126C87.4701 62.3126 87.8846 62.4843 88.1902 62.7899C88.4958 63.0955 88.6675 63.51 88.6675 63.9421V68.8307C88.667 69.2627 88.4952 69.6769 88.1897 69.9824C87.8842 70.2879 87.47 70.4597 87.038 70.4602Z" fill="#6C63FF"/>
<path d="M43.2252 88.5963H19.789C19.4986 88.5963 19.2201 88.4809 19.0148 88.2756C18.8095 88.0702 18.6941 87.7917 18.6941 87.5014C18.6941 87.211 18.8095 86.9325 19.0148 86.7271C19.2201 86.5218 19.4986 86.4064 19.789 86.4064H43.2252C43.5156 86.4064 43.7941 86.5218 43.9995 86.7271C44.2048 86.9325 44.3201 87.211 44.3201 87.5014C44.3201 87.7917 44.2048 88.0702 43.9995 88.2756C43.7941 88.4809 43.5156 88.5963 43.2252 88.5963Z" fill="#E6E6E6"/>
<path d="M35.7111 83.8888H27.3027C27.0123 83.8888 26.7338 83.7734 26.5285 83.5681C26.3231 83.3627 26.2078 83.0842 26.2078 82.7938C26.2078 82.5034 26.3231 82.2249 26.5285 82.0196C26.7338 81.8143 27.0123 81.6989 27.3027 81.6989H35.7111C36.0015 81.6989 36.28 81.8143 36.4853 82.0196C36.6906 82.2249 36.806 82.5034 36.806 82.7938C36.806 83.0842 36.6906 83.3627 36.4853 83.5681C36.28 83.7734 36.0015 83.8888 35.7111 83.8888Z" fill="#E6E6E6"/>
<path d="M103.152 50.7249H13.8906V51.087H103.152V50.7249Z" fill="#3F3D56"/>
</g>
<defs>
<clipPath id="clip0_626_12716">
<rect width="102.691" height="93.6631" fill="white" transform="translate(0.888916 0.555542)"/>
</clipPath>
</defs>
</svg>
