<svg width="114" height="98" viewBox="0 0 114 98" fill="none" xmlns="http://www.w3.org/2000/svg">
<g clip-path="url(#clip0_626_12619)">
<path d="M33.3062 96.5597C35.1256 95.0224 36.2307 92.5939 35.9409 90.2297C35.6511 87.8655 33.856 85.692 31.5277 85.19C29.1993 84.688 26.5451 86.0777 25.8379 88.3522C25.4487 83.9671 25.0002 79.3982 22.6688 75.6639C20.5577 72.2825 16.9014 69.863 12.9387 69.4302C8.97609 68.9974 4.80392 70.6322 2.33256 73.7598C-0.138802 76.8875 -0.743903 81.4345 0.986975 85.0253C2.26205 87.6706 4.61119 89.6392 7.07251 91.2408C15.0259 96.3724 24.565 98.4592 33.9346 97.1173" fill="#F2F2F2"/>
<path d="M6.25151 70.7229C9.52118 73.3861 12.5208 76.3647 15.2069 79.6156C19.4106 84.6858 22.8123 90.3704 25.2935 96.4714C25.4751 96.9165 24.7524 97.1102 24.5728 96.6701C22.995 92.8127 21.0429 89.1193 18.7445 85.6427C15.1605 80.2118 10.7695 75.359 5.723 71.2514C5.34988 70.9476 5.88146 70.4216 6.25151 70.7229Z" fill="white"/>
<path d="M34.5632 96.5597C32.7438 95.0224 31.6387 92.5939 31.9285 90.2297C32.2183 87.8655 34.0133 85.692 36.3417 85.19C38.6701 84.688 41.3243 86.0777 42.0315 88.3522C42.4207 83.9671 42.8692 79.3982 45.2006 75.6639C47.3116 72.2825 50.968 69.863 54.9306 69.4302C58.8933 68.9974 63.0655 70.6322 65.5368 73.7598C68.0082 76.8875 68.6133 81.4345 66.8824 85.0253C65.6073 87.6706 63.2582 89.6392 60.7969 91.2408C52.8435 96.3724 43.3044 98.4592 33.9348 97.1173" fill="#F2F2F2"/>
<path d="M61.6182 70.7229C58.3485 73.3861 55.3489 76.3647 52.6628 79.6156C48.459 84.6858 45.0573 90.3704 42.5762 96.4714C42.3945 96.9165 43.1173 97.1102 43.2969 96.6701C47.3565 86.7547 53.8374 78.0154 62.1467 71.2514C62.5198 70.9476 61.9882 70.4216 61.6182 70.7229Z" fill="white"/>
<path d="M39.9619 44.1983C43.3277 44.1983 46.0562 41.4698 46.0562 38.104C46.0562 34.7383 43.3277 32.0098 39.9619 32.0098C36.5962 32.0098 33.8677 34.7383 33.8677 38.104C33.8677 41.4698 36.5962 44.1983 39.9619 44.1983Z" fill="#F2F2F2"/>
<path d="M21.1714 17.0961H63.1591V19.3933H26.5315C24.3779 19.3933 22.2454 19.8174 20.2558 20.6416C18.2662 21.4657 16.4583 22.6736 14.9355 24.1965C13.4127 25.7193 12.2048 27.5271 11.3806 29.5167C10.5565 31.5064 10.1323 33.6388 10.1323 35.7924V61.8913H5.53795C5.33486 61.8913 5.1401 61.8106 4.9965 61.667C4.8529 61.5234 4.77222 61.3286 4.77222 61.1255V33.4952C4.77222 31.3416 5.19639 29.2092 6.02053 27.2195C6.84466 25.2299 8.05262 23.4221 9.57542 21.8993C11.0982 20.3764 12.9061 19.1685 14.8957 18.3444C16.8853 17.5202 19.0178 17.0961 21.1714 17.0961Z" fill="#F2F2F2"/>
<path d="M29.2476 96.6875V61.793H39.4702V96.6875C39.4699 96.922 39.3766 97.1469 39.2108 97.3127C39.0449 97.4786 38.8201 97.5719 38.5855 97.5721H30.1322C29.8977 97.5719 29.6728 97.4786 29.507 97.3127C29.3411 97.1469 29.2478 96.922 29.2476 96.6875Z" fill="#3F3D56"/>
<path d="M2.60986 61.1049V32.7303C2.61496 28.2133 4.41161 23.8827 7.60564 20.6887C10.7997 17.4946 15.1302 15.698 19.6473 15.6929H62.9627V62.0878H3.59281C3.33221 62.0875 3.08237 61.9839 2.89809 61.7996C2.71382 61.6153 2.61016 61.3655 2.60986 61.1049ZM62.5695 16.086H19.6473C15.2345 16.0911 11.0039 17.8463 7.88354 20.9666C4.76322 24.0869 3.00803 28.3175 3.00304 32.7303V61.1049C3.00321 61.2613 3.0654 61.4112 3.17597 61.5217C3.28653 61.6323 3.43644 61.6945 3.59281 61.6947H62.5695V16.086Z" fill="#3F3D56"/>
<path d="M39.9619 41.2494C39.0237 41.2484 38.1243 40.8752 37.4609 40.2118C36.7975 39.5485 36.4243 38.649 36.4233 37.7108V12.3509C36.4231 12.1945 36.3609 12.0446 36.2504 11.934C36.1398 11.8235 35.9899 11.7613 35.8335 11.7611H22.0723C21.8117 11.7608 21.5619 11.6571 21.3776 11.4729C21.1933 11.2886 21.0897 11.0388 21.0894 10.7782V1.53849C21.0897 1.27789 21.1933 1.02804 21.3776 0.843772C21.5619 0.659499 21.8117 0.555844 22.0723 0.555542H42.5175C42.7781 0.55584 43.028 0.659496 43.2123 0.843769C43.3965 1.02804 43.5002 1.27788 43.5005 1.53849V37.7108C43.4994 38.649 43.1263 39.5485 42.4629 40.2118C41.7995 40.8752 40.9001 41.2484 39.9619 41.2494Z" fill="#6C63FF"/>
<path d="M64.5356 15.2997C67.5013 15.2935 70.348 16.4656 72.4494 18.5583C74.5509 20.651 75.735 23.4927 75.7412 26.4584V58.7598H97.7592C98.6437 58.758 99.4927 59.1076 100.119 59.7317C100.746 60.3558 101.099 61.2033 101.101 62.0878H53.3301V26.4584C53.3363 23.4927 54.5204 20.651 56.6218 18.5583C58.7233 16.4656 61.57 15.2935 64.5356 15.2997Z" fill="#3F3D56"/>
<path d="M61.8466 33.6941L64.167 43.2789L109.556 32.2913L107.235 22.7064C107.207 22.5892 107.15 22.481 107.069 22.3918C106.988 22.3026 106.886 22.2353 106.772 22.1962C106.688 22.1666 106.599 22.1532 106.51 22.1568L80.273 8.5721C80.1192 8.49359 79.9425 8.47262 79.7746 8.51297C79.6068 8.55332 79.4589 8.65232 79.3576 8.79213L66.713 26.4249L61.9462 33.0741C61.9375 33.0858 61.9315 33.0991 61.9285 33.1133C61.9254 33.1275 61.9255 33.1422 61.9287 33.1563C61.8317 33.3178 61.8022 33.511 61.8466 33.6941Z" fill="white"/>
<path d="M61.9285 33.1563C61.9307 33.1688 61.9354 33.1807 61.9422 33.1914C61.9491 33.202 61.958 33.2112 61.9684 33.2184C61.9807 33.2269 61.9946 33.2327 62.0093 33.2356C62.0239 33.2385 62.039 33.2384 62.0536 33.2352C62.0773 33.2289 62.0981 33.2145 62.1123 33.1945L62.1287 33.1718L62.3769 32.8247L66.8845 26.5409L79.5253 8.91215C79.5974 8.81225 79.703 8.74153 79.8228 8.71281C79.9426 8.68409 80.0688 8.69928 80.1783 8.75562L106.212 22.2351L106.445 22.3563C106.455 22.3603 106.464 22.3637 106.474 22.3665C106.492 22.3633 106.51 22.3616 106.528 22.3614C106.552 22.3532 106.572 22.336 106.585 22.3132C106.591 22.3013 106.595 22.2882 106.596 22.2747C106.597 22.2612 106.596 22.2476 106.592 22.2347C106.588 22.2217 106.582 22.2097 106.573 22.1993C106.564 22.1889 106.554 22.1802 106.542 22.1739L106.509 22.1568L80.2728 8.5721C80.119 8.49359 79.9423 8.47262 79.7744 8.51297C79.6066 8.55332 79.4587 8.65232 79.3574 8.79213L66.7128 26.4249L61.9459 33.0741C61.9373 33.0858 61.9313 33.0991 61.9282 33.1133C61.9252 33.1275 61.9253 33.1422 61.9285 33.1563Z" fill="#3F3D56"/>
<path d="M75.5601 34.1337L76.5704 34.2458L84.0688 35.0765L89.0397 35.6268L89.3333 35.6594L95.5361 30.8145L95.7738 30.6289L97.2388 29.4848L102.451 25.4141L102.482 25.1282L104.336 8.39573C104.362 8.16532 104.294 7.9343 104.15 7.7533C104.005 7.5723 103.794 7.4561 103.564 7.43018L78.822 4.68938C78.5916 4.66422 78.3607 4.73139 78.1797 4.87616C77.9987 5.02094 77.8825 5.23153 77.8565 5.46182L76.5491 17.2645L75.8238 23.8082L75.1751 29.6623L74.8744 32.3809L74.7866 33.1684C74.7616 33.3989 74.8289 33.6299 74.9739 33.8109C75.1189 33.9918 75.3297 34.1079 75.5601 34.1337Z" fill="#E6E6E6"/>
<path d="M82.359 19.467L93.0764 20.654L96.8772 21.0749C97.045 21.0934 97.2148 21.0788 97.377 21.0318C97.5391 20.9847 97.6904 20.9062 97.8222 20.8007C97.954 20.6952 98.0637 20.5647 98.1451 20.4168C98.2265 20.2689 98.2779 20.1064 98.2965 19.9386C98.3151 19.7708 98.3005 19.6009 98.2534 19.4388C98.2064 19.2767 98.1278 19.1254 98.0223 18.9936C97.9168 18.8618 97.7864 18.752 97.6385 18.6707C97.4905 18.5893 97.328 18.5378 97.1602 18.5192L92.4329 17.9957L82.6429 16.9101C82.3039 16.8727 81.9639 16.9714 81.6977 17.1845C81.4315 17.3976 81.2608 17.7078 81.2232 18.0467C81.1856 18.3857 81.2841 18.7257 81.4971 18.992C81.7101 19.2584 82.0201 19.4292 82.359 19.467Z" fill="white"/>
<path d="M81.749 24.2078C81.7766 24.2128 81.8043 24.2177 81.8325 24.2204L94.2736 25.5987L96.3508 25.8293C96.6899 25.8668 97.0299 25.7681 97.2962 25.5548C97.5624 25.3416 97.733 25.0314 97.7706 24.6924C97.8081 24.3533 97.7093 24.0133 97.4961 23.747C97.2829 23.4808 96.9727 23.3101 96.6336 23.2726L93.6301 22.9403L83.775 21.8483L82.1165 21.6645C81.7849 21.6275 81.4518 21.721 81.1878 21.9251C80.9237 22.1292 80.7494 22.428 80.7017 22.7583C80.654 23.0886 80.7365 23.4245 80.932 23.695C81.1274 23.9655 81.4204 24.1494 81.749 24.2078Z" fill="white"/>
<path d="M80.3409 28.4117C80.4429 28.581 80.5825 28.7244 80.7489 28.831C80.9153 28.9376 81.104 29.0043 81.3004 29.0261L86.3996 29.5909L95.4815 30.597L95.4835 30.5965L95.7739 30.6289L97.2389 29.4847C97.248 29.3978 97.248 29.3102 97.2391 29.2232C97.2082 28.9314 97.0786 28.6588 96.8718 28.4506C96.6649 28.2424 96.3932 28.1111 96.1015 28.0783L94.8399 27.9382L89.8354 27.3843L86.2345 26.985L81.5831 26.4695C81.3448 26.4431 81.1038 26.4839 80.8874 26.5873C80.671 26.6907 80.4878 26.8526 80.3586 27.0546C80.2294 27.2567 80.1592 27.4908 80.1561 27.7306C80.153 27.9704 80.217 28.2064 80.3409 28.4117Z" fill="white"/>
<path d="M87.5032 13.6719L90.1698 13.9673L91.3476 14.0981L93.1267 14.295C93.4658 14.3325 93.8058 14.2337 94.072 14.0205C94.3383 13.8073 94.5089 13.4971 94.5464 13.158C94.5839 12.819 94.4852 12.479 94.272 12.2127C94.0588 11.9465 93.7486 11.7758 93.4095 11.7383L87.7872 11.116C87.4483 11.0784 87.1083 11.1769 86.842 11.3899C86.5757 11.6029 86.4049 11.913 86.3672 12.2519C86.3296 12.5909 86.4281 12.9309 86.6411 13.1972C86.8541 13.4635 87.1642 13.6342 87.5032 13.6719Z" fill="white"/>
<path d="M65.6987 20.7908L68.9498 34.2205L74.3759 35.2522L79.3952 36.2078L84.7805 37.2325L86.5012 37.56C86.602 37.579 86.7056 37.5764 86.8052 37.5523C86.9049 37.5282 86.9982 37.4831 87.0791 37.4201L88.4596 36.3419L89.3336 35.6593L95.5364 30.8145L91.5924 14.5224C91.5535 14.3603 91.4686 14.213 91.3478 14.098C91.242 13.9962 91.1122 13.9228 90.9705 13.8844C90.8288 13.846 90.6797 13.8439 90.5369 13.8784L66.3428 19.7353C66.1175 19.7899 65.9231 19.9318 65.8024 20.1297C65.6816 20.3276 65.6443 20.5654 65.6987 20.7908Z" fill="#6C63FF"/>
<path d="M73.1531 31.4747C73.2336 31.8059 73.4422 32.0918 73.7332 32.2693C74.0243 32.4469 74.3739 32.5018 74.7053 32.4218L88.9018 28.9851C89.233 28.9045 89.5187 28.6958 89.6962 28.4048C89.8738 28.1138 89.9287 27.7643 89.849 27.4329C89.8454 27.4165 89.8407 27.4003 89.8351 27.3844C89.7445 27.0649 89.5337 26.7929 89.2469 26.6253C88.9601 26.4578 88.6196 26.4078 88.2968 26.4857L74.1002 29.9224C73.7689 30.0029 73.4831 30.2116 73.3056 30.5026C73.128 30.7936 73.0731 31.1432 73.1531 31.4747Z" fill="white"/>
<path d="M74.3757 35.2523L79.395 36.2079L90.0275 33.634C90.3589 33.5538 90.6449 33.3452 90.8225 33.0541C91.0001 32.763 91.0549 32.4132 90.9746 32.0818C90.8944 31.7503 90.6858 31.4643 90.3947 31.2867C90.1036 31.1091 89.7539 31.0544 89.4224 31.1346L75.2259 34.5713C74.9292 34.6426 74.6678 34.8177 74.4892 35.065C74.4461 35.1241 74.4082 35.1868 74.3757 35.2523Z" fill="white"/>
<path d="M84.7803 37.2326L86.501 37.56C86.6017 37.579 86.7054 37.5764 86.805 37.5523C86.9047 37.5282 86.998 37.4831 87.0789 37.4201L88.4594 36.3419L84.7803 37.2326Z" fill="white"/>
<path d="M76.0138 24.2733C76.0943 24.6046 76.303 24.8904 76.594 25.068C76.8851 25.2456 77.2347 25.3004 77.5661 25.2205L83.0647 23.8894C83.3959 23.8087 83.6816 23.6 83.8591 23.309C84.0367 23.0181 84.0916 22.6686 84.0119 22.3371C83.9691 22.1591 83.8883 21.9923 83.775 21.8484C83.6229 21.6538 83.418 21.5071 83.1847 21.4258C82.9515 21.3445 82.6998 21.3321 82.4597 21.39L76.961 22.7211C76.6296 22.8014 76.3436 23.01 76.166 23.3011C75.9884 23.5922 75.9337 23.9419 76.0138 24.2733Z" fill="white"/>
<path d="M79.3948 36.2077L84.7809 37.2327L86.5012 37.5603C86.6019 37.5791 86.7054 37.5763 86.8049 37.5522C86.9045 37.5281 86.9978 37.4832 87.0788 37.4204L88.4602 36.342L87.9754 36.4593L86.9521 37.2577C86.8942 37.3025 86.8276 37.3346 86.7565 37.3518C86.6853 37.369 86.6114 37.371 86.5395 37.3576L85.2657 37.1153L79.8796 36.0904L79.3948 36.2077ZM95.4832 30.5973L95.5356 30.8139L95.7745 30.6281L95.4832 30.5973ZM79.3948 36.2077L84.7809 37.2327L86.5012 37.5603C86.6019 37.5791 86.7054 37.5763 86.8049 37.5522C86.9045 37.5281 86.9978 37.4832 87.0788 37.4204L88.4602 36.342L87.9754 36.4593L86.9521 37.2577C86.8942 37.3025 86.8276 37.3346 86.7565 37.3518C86.6853 37.369 86.6114 37.371 86.5395 37.3576L85.2657 37.1153L79.8796 36.0904L79.3948 36.2077ZM79.3948 36.2077L84.7809 37.2327L86.5012 37.5603C86.6019 37.5791 86.7054 37.5763 86.8049 37.5522C86.9045 37.5281 86.9978 37.4832 87.0788 37.4204L88.4602 36.342L87.9754 36.4593L86.9521 37.2577C86.8942 37.3025 86.8276 37.3346 86.7565 37.3518C86.6853 37.369 86.6114 37.371 86.5395 37.3576L85.2657 37.1153L79.8796 36.0904L79.3948 36.2077ZM61.8466 33.694L67.9244 58.8004C67.9695 58.9859 68.0864 59.146 68.2493 59.2454C68.4123 59.3449 68.6081 59.3756 68.7937 59.3308L112.783 48.682C112.968 48.6369 113.128 48.5201 113.228 48.3571C113.327 48.1941 113.358 47.9983 113.313 47.8127L107.235 22.7063C107.207 22.5891 107.15 22.4809 107.069 22.3917C106.988 22.3025 106.886 22.2353 106.772 22.1961C106.688 22.1666 106.599 22.1532 106.51 22.1567C106.406 22.1597 106.304 22.1865 106.212 22.235C106.169 22.2551 106.129 22.28 106.093 22.3091L102.482 25.1281L97.2393 29.2238L95.4828 30.5958L95.4832 30.5973L95.4817 30.5976L89.0403 35.626L87.9754 36.4593L86.9521 37.2577C86.8942 37.3025 86.8276 37.3346 86.7565 37.3518C86.6853 37.369 86.6114 37.371 86.5395 37.3576L85.2657 37.1153L79.8796 36.0904L74.4887 35.065L62.6813 32.8181C62.5807 32.7981 62.4768 32.8004 62.3771 32.8246C62.2428 32.8574 62.1208 32.9281 62.0256 33.0283C61.9891 33.0676 61.9566 33.1105 61.9287 33.1563C61.8317 33.3177 61.8022 33.5109 61.8466 33.694ZM79.3948 36.2077L84.7809 37.2327L86.5012 37.5603C86.6019 37.5791 86.7054 37.5763 86.8049 37.5522C86.9045 37.5281 86.9978 37.4832 87.0788 37.4204L88.4602 36.342L87.9754 36.4593L86.9521 37.2577C86.8942 37.3025 86.8276 37.3346 86.7565 37.3518C86.6853 37.369 86.6114 37.371 86.5395 37.3576L85.2657 37.1153L79.8796 36.0904L79.3948 36.2077ZM79.3948 36.2077L84.7809 37.2327L86.5012 37.5603C86.6019 37.5791 86.7054 37.5763 86.8049 37.5522C86.9045 37.5281 86.9978 37.4832 87.0788 37.4204L88.4602 36.342L87.9754 36.4593L86.9521 37.2577C86.8942 37.3025 86.8276 37.3346 86.7565 37.3518C86.6853 37.369 86.6114 37.371 86.5395 37.3576L85.2657 37.1153L79.8796 36.0904L79.3948 36.2077ZM79.3948 36.2077L84.7809 37.2327L86.5012 37.5603C86.6019 37.5791 86.7054 37.5763 86.8049 37.5522C86.9045 37.5281 86.9978 37.4832 87.0788 37.4204L88.4602 36.342L87.9754 36.4593L86.9521 37.2577C86.8942 37.3025 86.8276 37.3346 86.7565 37.3518C86.6853 37.369 86.6114 37.371 86.5395 37.3576L85.2657 37.1153L79.8796 36.0904L79.3948 36.2077Z" fill="white"/>
<path d="M79.3948 36.2078L84.7809 37.2328L86.5012 37.5604C86.6019 37.5792 86.7054 37.5764 86.8049 37.5523C86.9045 37.5282 86.9978 37.4833 87.0788 37.4205L88.4602 36.3421L87.9754 36.4594L86.9521 37.2578C86.8942 37.3026 86.8276 37.3347 86.7565 37.3519C86.6853 37.3692 86.6114 37.3711 86.5395 37.3577L85.2657 37.1154L79.8796 36.0905L79.3948 36.2078ZM95.4832 30.5974L95.5356 30.814L95.7745 30.6283L95.4832 30.5974ZM79.3948 36.2078L84.7809 37.2328L86.5012 37.5604C86.6019 37.5792 86.7054 37.5764 86.8049 37.5523C86.9045 37.5282 86.9978 37.4833 87.0788 37.4205L88.4602 36.3421L87.9754 36.4594L86.9521 37.2578C86.8942 37.3026 86.8276 37.3347 86.7565 37.3519C86.6853 37.3692 86.6114 37.3711 86.5395 37.3577L85.2657 37.1154L79.8796 36.0905L79.3948 36.2078ZM79.3948 36.2078L84.7809 37.2328L86.5012 37.5604C86.6019 37.5792 86.7054 37.5764 86.8049 37.5523C86.9045 37.5282 86.9978 37.4833 87.0788 37.4205L88.4602 36.3421L87.9754 36.4594L86.9521 37.2578C86.8942 37.3026 86.8276 37.3347 86.7565 37.3519C86.6853 37.3692 86.6114 37.3711 86.5395 37.3577L85.2657 37.1154L79.8796 36.0905L79.3948 36.2078ZM62.1289 33.1719L62.1556 33.1919C62.1601 33.1846 62.1679 33.178 62.1738 33.1703C62.2334 33.1084 62.3074 33.0621 62.3892 33.0358C62.471 33.0094 62.5581 33.0038 62.6427 33.0194L74.3762 35.2515L79.3948 36.2078L84.7809 37.2328L86.5012 37.5604C86.6019 37.5792 86.7054 37.5764 86.8049 37.5523C86.9045 37.5282 86.9978 37.4833 87.0788 37.4205L88.4602 36.3421L87.9754 36.4594L86.9521 37.2578C86.8942 37.3026 86.8276 37.3347 86.7565 37.3519C86.6853 37.3692 86.6114 37.3711 86.5395 37.3577L85.2657 37.1154L79.8796 36.0905L74.4887 35.0651L62.6813 32.8182C62.5807 32.7982 62.4768 32.8005 62.3771 32.8248L62.1289 33.1719ZM61.8466 33.6941L67.9244 58.8005C67.9695 58.986 68.0864 59.1461 68.2493 59.2455C68.4123 59.345 68.6081 59.3757 68.7937 59.331L112.783 48.6822C112.968 48.6371 113.128 48.5202 113.228 48.3572C113.327 48.1942 113.358 47.9984 113.313 47.8128L107.235 22.7064C107.207 22.5892 107.15 22.481 107.069 22.3918C106.988 22.3027 106.886 22.2354 106.772 22.1963C106.688 22.1667 106.599 22.1533 106.51 22.1568C106.406 22.1598 106.304 22.1866 106.212 22.2351C106.169 22.2552 106.129 22.2801 106.093 22.3092L102.482 25.1283L97.2393 29.2239L95.4828 30.5959L95.4832 30.5974L95.4817 30.5977L89.0403 35.6261L87.9754 36.4594L86.9521 37.2578C86.8942 37.3026 86.8276 37.3347 86.7565 37.3519C86.6853 37.3692 86.6114 37.3711 86.5395 37.3577L85.2657 37.1154L79.8796 36.0905L74.4887 35.0651L62.6813 32.8182C62.5807 32.7982 62.4768 32.8005 62.3771 32.8248C62.2428 32.8576 62.1208 32.9282 62.0256 33.0284C61.9891 33.0677 61.9566 33.1106 61.9287 33.1564C61.8317 33.3178 61.8022 33.511 61.8466 33.6941ZM62.0471 33.6456C62.0292 33.5716 62.028 33.4945 62.0437 33.42C62.0594 33.3455 62.0916 33.2754 62.1378 33.2149C62.142 33.206 62.1481 33.1982 62.1556 33.1919C62.1601 33.1846 62.1679 33.178 62.1738 33.1703C62.2334 33.1084 62.3074 33.0621 62.3892 33.0358C62.471 33.0094 62.5581 33.0038 62.6427 33.0194L74.3762 35.2515L79.3948 36.2078L84.7809 37.2328L86.5012 37.5604C86.6019 37.5792 86.7054 37.5764 86.8049 37.5523C86.9045 37.5282 86.9978 37.4833 87.0788 37.4205L88.4602 36.3421L89.3338 35.6595L95.5356 30.814L95.7745 30.6283L97.2384 29.4846L102.452 25.4134L106.22 22.4701C106.278 22.4254 106.344 22.3935 106.415 22.3763C106.434 22.3715 106.454 22.3682 106.475 22.3665C106.492 22.3633 106.51 22.3616 106.528 22.3614C106.588 22.3608 106.648 22.3706 106.705 22.3903C106.786 22.4186 106.859 22.4667 106.917 22.5303C106.975 22.594 107.016 22.671 107.036 22.7546L113.114 47.861C113.13 47.9268 113.133 47.9951 113.123 48.062C113.112 48.1289 113.089 48.1931 113.053 48.2509C113.018 48.3086 112.972 48.3589 112.917 48.3988C112.862 48.4387 112.8 48.4674 112.734 48.4832L68.7456 59.132C68.6129 59.1639 68.4729 59.1418 68.3565 59.0705C68.2401 58.9993 68.1568 58.8847 68.1248 58.752L62.0471 33.6456ZM79.3948 36.2078L84.7809 37.2328L86.5012 37.5604C86.6019 37.5792 86.7054 37.5764 86.8049 37.5523C86.9045 37.5282 86.9978 37.4833 87.0788 37.4205L88.4602 36.3421L87.9754 36.4594L86.9521 37.2578C86.8942 37.3026 86.8276 37.3347 86.7565 37.3519C86.6853 37.3692 86.6114 37.3711 86.5395 37.3577L85.2657 37.1154L79.8796 36.0905L79.3948 36.2078ZM79.3948 36.2078L84.7809 37.2328L86.5012 37.5604C86.6019 37.5792 86.7054 37.5764 86.8049 37.5523C86.9045 37.5282 86.9978 37.4833 87.0788 37.4205L88.4602 36.3421L87.9754 36.4594L86.9521 37.2578C86.8942 37.3026 86.8276 37.3347 86.7565 37.3519C86.6853 37.3692 86.6114 37.3711 86.5395 37.3577L85.2657 37.1154L79.8796 36.0905L79.3948 36.2078ZM79.3948 36.2078L84.7809 37.2328L86.5012 37.5604C86.6019 37.5792 86.7054 37.5764 86.8049 37.5523C86.9045 37.5282 86.9978 37.4833 87.0788 37.4205L88.4602 36.3421L87.9754 36.4594L86.9521 37.2578C86.8942 37.3026 86.8276 37.3347 86.7565 37.3519C86.6853 37.3692 86.6114 37.3711 86.5395 37.3577L85.2657 37.1154L79.8796 36.0905L79.3948 36.2078Z" fill="#3F3D56"/>
<path d="M101.318 43.7495C101.219 43.3381 101.287 42.9042 101.507 42.543C101.728 42.1818 102.082 41.9227 102.493 41.8227L108.045 40.4787C108.456 40.3808 108.889 40.4497 109.249 40.6703C109.609 40.8909 109.867 41.2453 109.967 41.6558C110.066 42.0662 109.999 42.4994 109.779 42.8603C109.56 43.2212 109.207 43.4804 108.796 43.5813L103.244 44.9253C102.833 45.0244 102.399 44.9562 102.038 44.7358C101.677 44.5154 101.418 44.1607 101.318 43.7495Z" fill="#6C63FF"/>
<path d="M39.9618 39.087C40.7218 39.087 41.3379 38.4708 41.3379 37.7108C41.3379 36.9508 40.7218 36.3347 39.9618 36.3347C39.2018 36.3347 38.5857 36.9508 38.5857 37.7108C38.5857 38.4708 39.2018 39.087 39.9618 39.087Z" fill="white"/>
</g>
<defs>
<clipPath id="clip0_626_12619">
<rect width="113.333" height="97.0166" fill="white" transform="translate(0 0.555542)"/>
</clipPath>
</defs>
</svg>
