<svg width="121" height="88" viewBox="0 0 121 88" fill="none" xmlns="http://www.w3.org/2000/svg">
<g clip-path="url(#clip0_626_12646)">
<path d="M76.7491 44.7455V65.6373H24.4073C18.4436 65.6373 13.5916 60.9511 13.5916 55.1914C13.5916 49.4317 18.4436 44.7455 24.4073 44.7455H76.7491Z" fill="#F2F2F2"/>
<path d="M78.0347 65.4765C78.0347 65.6896 77.95 65.894 77.7993 66.0446C77.6486 66.1953 77.4443 66.28 77.2312 66.2801H23.4749C20.5553 66.2801 17.7553 65.1203 15.6908 63.0558C13.6264 60.9913 12.4666 58.1913 12.4666 55.2717C12.4666 52.3521 13.6264 49.5521 15.6908 47.4876C17.7553 45.4231 20.5553 44.2633 23.4749 44.2633H77.2312C77.4443 44.2633 77.6487 44.348 77.7994 44.4987C77.9501 44.6493 78.0347 44.8537 78.0347 45.0668C78.0347 45.2799 77.9501 45.4843 77.7994 45.635C77.6487 45.7857 77.4443 45.8704 77.2312 45.8704H23.4749C20.9816 45.8704 18.5903 46.8609 16.8272 48.624C15.0641 50.387 14.0736 52.7783 14.0736 55.2717C14.0736 57.7651 15.0641 60.1563 16.8272 61.9194C18.5903 63.6825 20.9816 64.673 23.4749 64.673H77.2312C77.4443 64.6731 77.6486 64.7578 77.7993 64.9084C77.95 65.0591 78.0347 65.2635 78.0347 65.4765Z" fill="#6610F2"/>
<path d="M76.749 49.5665H20.5018C20.4591 49.5665 20.4183 49.5496 20.3881 49.5195C20.358 49.4893 20.3411 49.4484 20.3411 49.4058C20.3411 49.3632 20.358 49.3223 20.3881 49.2922C20.4183 49.2621 20.4591 49.2451 20.5018 49.2451H76.749C76.7916 49.2451 76.8325 49.2621 76.8626 49.2922C76.8928 49.3223 76.9097 49.3632 76.9097 49.4058C76.9097 49.4484 76.8928 49.4893 76.8626 49.5195C76.8325 49.5496 76.7916 49.5665 76.749 49.5665Z" fill="#CCCCCC"/>
<path d="M76.749 53.4235H20.5018C20.4591 53.4235 20.4183 53.4065 20.3881 53.3764C20.358 53.3463 20.3411 53.3054 20.3411 53.2628C20.3411 53.2201 20.358 53.1793 20.3881 53.1491C20.4183 53.119 20.4591 53.1021 20.5018 53.1021H76.749C76.7916 53.1021 76.8325 53.119 76.8626 53.1491C76.8928 53.1793 76.9097 53.2201 76.9097 53.2628C76.9097 53.3054 76.8928 53.3463 76.8626 53.3764C76.8325 53.4065 76.7916 53.4235 76.749 53.4235Z" fill="#CCCCCC"/>
<path d="M76.749 57.2805H20.5018C20.4591 57.2805 20.4183 57.2636 20.3881 57.2334C20.358 57.2033 20.3411 57.1624 20.3411 57.1198C20.3411 57.0772 20.358 57.0363 20.3881 57.0062C20.4183 56.976 20.4591 56.9591 20.5018 56.9591H76.749C76.7916 56.9591 76.8325 56.976 76.8626 57.0062C76.8928 57.0363 76.9097 57.0772 76.9097 57.1198C76.9097 57.1624 76.8928 57.2033 76.8626 57.2334C76.8325 57.2636 76.7916 57.2805 76.749 57.2805Z" fill="#CCCCCC"/>
<path d="M76.749 61.1375H20.5018C20.4591 61.1375 20.4183 61.1205 20.3881 61.0904C20.358 61.0602 20.3411 61.0194 20.3411 60.9767C20.3411 60.9341 20.358 60.8933 20.3881 60.8631C20.4183 60.833 20.4591 60.816 20.5018 60.816H76.749C76.7916 60.816 76.8325 60.833 76.8626 60.8631C76.8928 60.8933 76.9097 60.9341 76.9097 60.9767C76.9097 61.0194 76.8928 61.0602 76.8626 61.0904C76.8325 61.1205 76.7916 61.1375 76.749 61.1375Z" fill="#CCCCCC"/>
<path d="M117.202 48.6781L104.094 64.9461L63.3363 32.1057C58.6925 28.364 57.8545 21.6707 61.4683 17.1857C65.082 12.7007 71.8005 12.096 76.4442 15.8377L117.202 48.6781Z" fill="#F2F2F2"/>
<path d="M105.196 65.6275C105.062 65.7934 104.868 65.8993 104.656 65.9221C104.444 65.9449 104.232 65.8827 104.066 65.749L62.2068 32.0212C59.9333 30.1894 58.4807 27.5295 58.1684 24.6266C57.8561 21.7238 58.7098 18.8158 60.5416 16.5423C62.3735 14.2689 65.0334 12.8163 67.9362 12.504C70.8391 12.1917 73.7471 13.0454 76.0205 14.8772L117.879 48.605C117.962 48.6712 118.03 48.7529 118.081 48.8456C118.131 48.9382 118.163 49.0399 118.175 49.1448C118.186 49.2498 118.176 49.3559 118.147 49.4572C118.117 49.5585 118.068 49.653 118.001 49.7352C117.935 49.8174 117.853 49.8857 117.761 49.9363C117.668 49.9869 117.566 50.0187 117.461 50.03C117.356 50.0412 117.25 50.0317 117.149 50.0019C117.048 49.9721 116.953 49.9227 116.871 49.8564L75.0122 16.1286C74.0509 15.3534 72.9463 14.7752 71.7615 14.427C70.5767 14.0788 69.3349 13.9675 68.1071 14.0993C66.8792 14.2311 65.6894 14.6036 64.6055 15.1954C63.5216 15.7872 62.565 16.5867 61.7901 17.5483C61.0153 18.5099 60.4376 19.6147 60.0898 20.7997C59.7421 21.9846 59.6313 23.2265 59.7636 24.4543C59.8959 25.6821 60.2688 26.8718 60.861 27.9554C61.4533 29.0391 62.2532 29.9954 63.2151 30.7698L105.074 64.4977C105.24 64.6314 105.346 64.8256 105.369 65.0374C105.391 65.2493 105.329 65.4615 105.196 65.6275Z" fill="#CCCCCC"/>
<path d="M114.177 52.4322L70.3782 17.1416C70.3618 17.1283 70.3481 17.112 70.338 17.0934C70.3279 17.0749 70.3215 17.0546 70.3193 17.0336C70.317 17.0126 70.3189 16.9914 70.3249 16.9712C70.3308 16.9509 70.3407 16.932 70.3539 16.9156C70.3672 16.8992 70.3835 16.8855 70.402 16.8754C70.4206 16.8653 70.4409 16.8589 70.4619 16.8566C70.4829 16.8544 70.5041 16.8563 70.5243 16.8622C70.5446 16.8682 70.5635 16.878 70.5799 16.8913L114.378 52.182C114.395 52.1952 114.409 52.2115 114.419 52.2301C114.429 52.2486 114.435 52.2689 114.438 52.2899C114.44 52.3109 114.438 52.3322 114.432 52.3524C114.426 52.3727 114.416 52.3916 114.403 52.4081C114.39 52.4245 114.373 52.4382 114.355 52.4483C114.336 52.4584 114.316 52.4648 114.295 52.467C114.274 52.4693 114.253 52.4674 114.232 52.4614C114.212 52.4554 114.193 52.4455 114.177 52.4322Z" fill="#CCCCCC"/>
<path d="M111.757 55.4355L67.9584 20.1448C67.9253 20.1181 67.9041 20.0793 67.8996 20.0369C67.8951 19.9946 67.9075 19.9522 67.9343 19.919C67.961 19.8858 67.9998 19.8646 68.0421 19.8601C68.0844 19.8555 68.1269 19.8679 68.1601 19.8946L111.959 55.1853C111.975 55.1985 111.989 55.2148 111.999 55.2334C112.009 55.2519 112.015 55.2722 112.018 55.2932C112.02 55.3142 112.018 55.3355 112.012 55.3557C112.006 55.376 111.996 55.3949 111.983 55.4114C111.97 55.4278 111.954 55.4415 111.935 55.4516C111.916 55.4617 111.896 55.4681 111.875 55.4703C111.854 55.4726 111.833 55.4706 111.813 55.4647C111.792 55.4587 111.773 55.4488 111.757 55.4355Z" fill="#CCCCCC"/>
<path d="M109.337 58.4388L65.5382 23.1482C65.505 23.1214 65.4838 23.0826 65.4792 23.0402C65.4746 22.9978 65.4871 22.9554 65.5138 22.9222C65.5406 22.889 65.5794 22.8678 65.6218 22.8632C65.6642 22.8587 65.7066 22.8711 65.7398 22.8979L109.538 58.1886C109.555 58.2018 109.569 58.2182 109.579 58.2367C109.589 58.2552 109.595 58.2755 109.597 58.2965C109.6 58.3175 109.598 58.3387 109.592 58.359C109.586 58.3792 109.576 58.3981 109.563 58.4145C109.549 58.431 109.533 58.4446 109.515 58.4547C109.496 58.4649 109.476 58.4712 109.455 58.4735C109.434 58.4757 109.413 58.4738 109.392 58.4679C109.372 58.462 109.353 58.4521 109.337 58.4388Z" fill="#CCCCCC"/>
<path d="M106.917 61.4422L63.1182 26.1516C63.1018 26.1383 63.0881 26.122 63.078 26.1035C63.0679 26.0849 63.0615 26.0646 63.0593 26.0436C63.057 26.0226 63.0589 26.0014 63.0649 25.9812C63.0708 25.9609 63.0807 25.942 63.0939 25.9256C63.1072 25.9092 63.1235 25.8955 63.142 25.8854C63.1606 25.8753 63.1809 25.8689 63.2019 25.8666C63.2229 25.8644 63.2441 25.8663 63.2643 25.8722C63.2846 25.8782 63.3035 25.888 63.3199 25.9013L107.118 61.192C107.135 61.2052 107.149 61.2215 107.159 61.2401C107.169 61.2586 107.175 61.2789 107.178 61.2999C107.18 61.3209 107.178 61.3422 107.172 61.3625C107.166 61.3827 107.156 61.4016 107.143 61.4181C107.13 61.4345 107.113 61.4482 107.095 61.4583C107.076 61.4684 107.056 61.4748 107.035 61.477C107.014 61.4793 106.993 61.4774 106.972 61.4714C106.952 61.4654 106.933 61.4555 106.917 61.4422Z" fill="#CCCCCC"/>
<path d="M119.96 66.4408H0.71637C0.673748 66.4408 0.632872 66.4239 0.602734 66.3937C0.572595 66.3636 0.555664 66.3227 0.555664 66.2801C0.555664 66.2375 0.572595 66.1966 0.602734 66.1665C0.632872 66.1363 0.673748 66.1194 0.71637 66.1194H119.96C120.003 66.1194 120.044 66.1363 120.074 66.1665C120.104 66.1966 120.121 66.2375 120.121 66.2801C120.121 66.3227 120.104 66.3636 120.074 66.3937C120.044 66.4239 120.003 66.4408 119.96 66.4408Z" fill="#CCCCCC"/>
</g>
<defs>
<clipPath id="clip0_626_12646">
<rect width="119.566" height="86.6667" fill="white" transform="translate(0.555664 0.888916)"/>
</clipPath>
</defs>
</svg>
