<svg width="11" height="13" viewBox="0 0 11 13" fill="none" xmlns="http://www.w3.org/2000/svg">
<path d="M10.0449 9.34801C10.4703 9.59363 10.6943 9.87225 10.6943 10.1559C10.6943 10.4395 10.4703 10.7181 10.0449 10.9637C9.61949 11.2093 9.0076 11.4133 8.27074 11.5551C7.53387 11.6969 6.69801 11.7716 5.84716 11.7716C4.9963 11.7716 4.16044 11.6969 3.42358 11.5551C2.68672 11.4133 2.07482 11.2093 1.6494 10.9637C1.22397 10.7181 1 10.4395 1 10.1559C1 9.87225 1.22397 9.59363 1.6494 9.34801M9.61675 4.77001C9.61675 7.30545 7.18858 8.89322 6.22966 9.4214C5.98896 9.55398 5.70451 9.55398 5.46381 9.4214C4.50489 8.89322 2.07673 7.30545 2.07673 4.77001C2.07673 2.68789 3.76462 1 5.84674 1C7.92886 1 9.61675 2.68789 9.61675 4.77001ZM7.4626 4.77099C7.4626 5.66333 6.73922 6.38671 5.84688 6.38671C4.95454 6.38671 4.23116 5.66333 4.23116 4.77099C4.23116 3.87866 4.95454 3.15527 5.84688 3.15527C6.73922 3.15527 7.4626 3.87866 7.4626 4.77099Z" stroke="#2A2968" stroke-width="0.578818" stroke-linecap="round"/>
</svg>
